<?xml version="1.0" encoding="utf-8" standalone="no"?>
<!DOCTYPE svg PUBLIC "-//W3C//DTD SVG 1.1//EN"
  "http://www.w3.org/Graphics/SVG/1.1/DTD/svg11.dtd">
<svg xmlns:xlink="http://www.w3.org/1999/xlink" width="712.8pt" height="338.164219pt" viewBox="0 0 712.8 338.164219" xmlns="http://www.w3.org/2000/svg" version="1.1">
 <metadata>
  <rdf:RDF xmlns:dc="http://purl.org/dc/elements/1.1/" xmlns:cc="http://creativecommons.org/ns#" xmlns:rdf="http://www.w3.org/1999/02/22-rdf-syntax-ns#">
   <cc:Work>
    <dc:type rdf:resource="http://purl.org/dc/dcmitype/StillImage"/>
    <dc:date>2026-06-22T17:05:16.930490</dc:date>
    <dc:format>image/svg+xml</dc:format>
    <dc:creator>
     <cc:Agent>
      <dc:title>Matplotlib v3.10.9, https://matplotlib.org/</dc:title>
     </cc:Agent>
    </dc:creator>
   </cc:Work>
  </rdf:RDF>
 </metadata>
 <defs>
  <style type="text/css">*{stroke-linejoin: round; stroke-linecap: butt}</style>
 </defs>
 <g id="figure_1">
  <g id="patch_1">
   <path d="M 0 338.164219 
L 712.8 338.164219 
L 712.8 0 
L 0 0 
z
" style="fill: #ffffff"/>
  </g>
  <g id="axes_1">
   <g id="patch_2">
    <path d="M 63.072 233.081419 
L 230.688 233.081419 
L 230.688 135.198619 
L 63.072 135.198619 
z
" clip-path="url(#p9d2725cda4)" style="fill: #d9eaf7; stroke: #b8c2cc; stroke-linejoin: miter"/>
   </g>
   <g id="patch_3">
    <path d="M 272.592 233.081419 
L 440.208 233.081419 
L 440.208 135.198619 
L 272.592 135.198619 
z
" clip-path="url(#p9d2725cda4)" style="fill: #e2f0d9; stroke: #b8c2cc; stroke-linejoin: miter"/>
   </g>
   <g id="patch_4">
    <path d="M 482.112 233.081419 
L 649.728 233.081419 
L 649.728 135.198619 
L 482.112 135.198619 
z
" clip-path="url(#p9d2725cda4)" style="fill: #fce4d6; stroke: #b8c2cc; stroke-linejoin: miter"/>
   </g>
   <g id="text_1">
    <!-- 資本効率改革 -->
    <g style="fill: #17365d" transform="translate(113.88 181.036987) scale(0.11 -0.11)">
     <defs>
      <path id="HiraginoSans-W4-8cc7" d="M 3584 4467 
C 3424 3834 2867 3469 1920 3379 
C 2067 3213 2093 3174 2170 3002 
C 2566 3072 2899 3181 3155 3328 
C 3482 3501 3654 3686 3853 4038 
C 4250 3386 4819 3053 5939 2822 
C 6029 3046 6054 3098 6163 3264 
C 5594 3322 5133 3450 4794 3648 
C 4435 3859 4173 4154 4083 4467 
L 5312 4467 
C 5146 4262 5037 4166 4781 4013 
C 4947 3955 5062 3904 5203 3821 
C 5427 4000 5619 4192 5786 4429 
C 5856 4531 5856 4531 5875 4550 
C 5926 4614 5926 4614 5946 4646 
L 5658 4877 
C 5523 4851 5434 4845 5165 4845 
L 3098 4845 
C 3200 4992 3258 5082 3379 5274 
L 2906 5395 
C 2758 4973 2406 4563 1894 4211 
C 2048 4115 2106 4064 2221 3910 
C 2477 4109 2643 4262 2822 4467 
L 3584 4467 
z
M 1920 4608 
C 1568 4864 1363 4986 883 5216 
L 582 4870 
C 1024 4672 1235 4538 1619 4230 
L 1920 4608 
z
M 1990 3994 
C 1389 3699 813 3501 384 3424 
L 563 2938 
C 678 2995 730 3021 851 3066 
C 1434 3283 1638 3373 2118 3597 
L 1990 3994 
z
M 2170 480 
C 1600 160 1158 26 326 -77 
C 467 -237 518 -314 608 -499 
C 1491 -320 1888 -173 2547 205 
L 2170 480 
z
M 3808 205 
C 4454 -173 4928 -339 5805 -493 
C 5939 -250 5946 -243 6086 -64 
C 5222 32 4781 160 4166 474 
L 3808 205 
z
M 1798 2963 
C 1498 2963 1286 2970 1139 2982 
C 1152 2797 1158 2598 1158 2304 
L 1158 1126 
C 1158 813 1152 595 1133 474 
C 1293 493 1530 499 1837 499 
L 4557 499 
C 4851 499 5114 493 5261 474 
C 5242 595 5235 832 5235 1146 
L 5235 2278 
C 5235 2592 5242 2797 5254 2982 
C 5082 2970 4947 2963 4595 2963 
L 1798 2963 
z
M 1626 2605 
L 4768 2605 
L 4768 2253 
L 1626 2253 
L 1626 2605 
z
M 1626 1914 
L 4768 1914 
L 4768 1562 
L 1626 1562 
L 1626 1914 
z
M 1626 1222 
L 4768 1222 
L 4768 864 
L 1626 864 
L 1626 1222 
z
" transform="scale(0.015625)"/>
      <path id="HiraginoSans-W4-672c" d="M 2656 3750 
C 2368 3181 2118 2810 1683 2298 
C 1216 1754 762 1363 218 1037 
C 384 864 442 787 550 576 
C 1005 890 1344 1190 1741 1626 
C 2278 2221 2611 2720 2925 3418 
C 2906 3091 2899 2848 2899 2624 
L 2899 1293 
L 2291 1293 
C 1965 1293 1830 1299 1670 1325 
L 1670 794 
C 1850 819 2029 832 2310 832 
L 2899 832 
L 2899 275 
C 2899 -26 2880 -256 2854 -480 
L 3437 -480 
C 3405 -269 3392 -32 3392 269 
L 3392 832 
L 4045 832 
C 4320 832 4499 819 4685 794 
L 4685 1325 
C 4518 1299 4384 1293 4070 1293 
L 3392 1293 
L 3392 2624 
C 3392 2816 3379 3085 3360 3437 
C 3526 3066 3610 2918 3782 2650 
C 4019 2285 4269 1971 4544 1677 
C 4954 1248 5338 922 5843 589 
C 5952 806 6016 902 6170 1088 
C 5619 1382 5158 1747 4685 2246 
C 4269 2688 3968 3117 3616 3750 
L 5242 3750 
C 5510 3750 5709 3738 5978 3712 
L 5978 4269 
C 5779 4237 5555 4224 5242 4224 
L 3392 4224 
L 3392 4749 
C 3392 4960 3405 5146 3430 5331 
L 2854 5331 
C 2886 5120 2899 4966 2899 4742 
L 2899 4224 
L 1146 4224 
C 858 4224 672 4237 429 4269 
L 429 3712 
C 666 3738 890 3750 1146 3750 
L 2656 3750 
z
" transform="scale(0.015625)"/>
      <path id="HiraginoSans-W4-52b9" d="M 4666 3962 
C 4672 4070 4672 4077 4672 4122 
C 4691 5082 4691 5082 4717 5331 
L 4160 5331 
C 4186 5165 4198 5005 4198 4826 
C 4198 4435 4198 4326 4186 3962 
L 4019 3962 
C 3725 3962 3578 3968 3424 4000 
L 3424 3494 
C 3558 3514 3680 3520 4013 3520 
L 4160 3520 
C 4083 2432 3917 1702 3610 1133 
C 3322 602 3034 269 2541 -96 
C 2714 -211 2816 -314 2918 -467 
C 3456 -19 3782 390 4077 979 
C 4390 1606 4570 2438 4646 3520 
L 5472 3520 
C 5453 2285 5408 1523 5325 922 
C 5210 160 5171 83 4909 83 
C 4736 83 4512 109 4224 166 
C 4288 -38 4301 -122 4314 -333 
C 4525 -358 4762 -371 4954 -371 
C 5446 -371 5594 -243 5715 282 
C 5837 838 5920 1850 5952 3213 
C 5965 3693 5971 3846 5984 3987 
C 5843 3968 5715 3962 5395 3962 
L 4666 3962 
z
M 1062 2246 
C 1395 1926 1510 1811 1798 1478 
C 1421 838 928 352 256 -45 
C 378 -147 499 -294 595 -448 
C 1254 6 1702 474 2106 1107 
C 2323 832 2413 710 2662 339 
L 3008 710 
C 2694 1126 2573 1274 2355 1536 
C 2522 1869 2618 2106 2784 2598 
L 2330 2816 
C 2246 2426 2189 2259 2022 1907 
C 1811 2125 1709 2234 1389 2534 
L 1062 2246 
z
M 1715 4493 
L 1043 4493 
C 736 4493 589 4499 416 4531 
L 416 4019 
C 602 4051 762 4058 1030 4058 
L 2822 4058 
C 3155 4058 3264 4051 3411 4038 
L 3411 4525 
C 3264 4499 3085 4493 2784 4493 
L 2189 4493 
L 2189 4858 
C 2189 5075 2195 5210 2227 5382 
L 1683 5382 
C 1702 5222 1715 5075 1715 4864 
L 1715 4493 
z
M 1216 3866 
C 1101 3552 1030 3405 877 3181 
C 704 2918 570 2771 282 2502 
C 454 2374 493 2349 653 2170 
C 1158 2720 1357 3027 1638 3680 
L 1216 3866 
z
M 2336 3674 
C 2662 3053 2816 2816 3232 2330 
C 3392 2515 3456 2579 3578 2656 
C 3213 3021 2976 3354 2726 3866 
L 2336 3674 
z
" transform="scale(0.015625)"/>
      <path id="HiraginoSans-W4-7387" d="M 2074 2310 
C 2035 2304 2003 2304 1997 2304 
C 1894 2304 1728 2310 1645 2323 
L 1722 1862 
C 1798 1875 1888 1888 2061 1901 
C 3078 1984 3469 2029 4109 2144 
C 4198 2003 4230 1939 4333 1734 
L 4742 1926 
C 4371 2490 4250 2643 3872 3053 
L 3526 2886 
C 3718 2688 3776 2618 3898 2458 
C 3680 2426 3680 2426 2739 2342 
C 2925 2502 2925 2502 3315 2893 
L 3398 2970 
C 3814 3398 3872 3462 4147 3827 
L 3782 4083 
C 3520 3693 3398 3539 3091 3200 
C 2963 3341 2906 3405 2720 3571 
C 2970 3866 3117 4077 3302 4403 
L 5427 4403 
C 5696 4403 5888 4397 6074 4371 
L 6074 4883 
C 5882 4858 5677 4845 5376 4845 
L 3398 4845 
L 3398 4960 
C 3398 5126 3411 5235 3437 5382 
L 2886 5382 
C 2906 5248 2918 5114 2918 4960 
L 2918 4845 
L 1082 4845 
C 787 4845 589 4858 390 4883 
L 390 4371 
C 576 4397 774 4403 1030 4403 
L 2810 4403 
C 2714 4205 2592 4026 2432 3827 
C 2342 3904 2291 3942 2150 4045 
L 1856 3738 
C 2253 3456 2534 3206 2803 2899 
C 2573 2669 2458 2560 2170 2310 
L 2074 2310 
z
M 3379 928 
L 5402 928 
C 5683 928 5901 915 6093 890 
L 6093 1414 
C 5920 1389 5690 1370 5453 1370 
L 3379 1370 
L 3379 1453 
C 3379 1632 3386 1747 3405 1856 
L 2867 1856 
C 2886 1754 2893 1619 2893 1459 
L 2893 1370 
L 966 1370 
C 723 1370 474 1389 314 1414 
L 314 890 
C 538 915 730 928 998 928 
L 2893 928 
L 2893 32 
C 2893 -179 2880 -352 2848 -544 
L 3424 -544 
C 3392 -358 3379 -192 3379 32 
L 3379 928 
z
M 595 3898 
C 986 3597 1146 3443 1485 3040 
L 1837 3366 
C 1536 3693 1312 3891 941 4186 
L 595 3898 
z
M 563 1722 
C 678 1786 698 1792 787 1843 
C 954 1920 992 1946 1146 2029 
C 1478 2221 1651 2336 2035 2624 
L 1830 2995 
C 1350 2611 845 2336 352 2195 
L 563 1722 
z
M 5299 4205 
C 4973 3827 4717 3610 4275 3315 
L 4589 2995 
C 5024 3302 5312 3552 5658 3910 
L 5299 4205 
z
M 4499 2643 
C 4986 2323 5280 2080 5651 1690 
L 5978 2067 
C 5536 2451 5312 2618 4787 2944 
L 4499 2643 
z
" transform="scale(0.015625)"/>
      <path id="HiraginoSans-W4-6539" d="M 5562 3814 
C 5869 3814 5971 3808 6150 3782 
L 6150 4294 
C 5997 4269 5818 4256 5536 4256 
L 3936 4256 
C 4013 4493 4051 4653 4109 4902 
C 4173 5184 4192 5242 4218 5306 
L 3680 5408 
C 3674 5229 3642 5043 3578 4762 
C 3379 3840 2995 3034 2490 2451 
C 2662 2362 2765 2291 2893 2157 
C 3072 2400 3181 2573 3347 2874 
C 3482 2214 3674 1754 4051 1178 
C 3584 634 2950 218 2221 -45 
C 2355 -192 2432 -314 2522 -512 
C 2982 -301 3238 -147 3590 115 
C 3891 339 4115 544 4333 787 
C 4749 288 5286 -147 5914 -499 
C 5997 -294 6074 -173 6214 0 
C 5824 186 5664 275 5389 493 
C 5069 730 4851 941 4646 1184 
C 4947 1626 5146 2061 5293 2579 
C 5408 2982 5453 3258 5498 3814 
L 5562 3814 
z
M 5011 3814 
C 4979 3309 4947 3085 4851 2726 
C 4730 2298 4576 1939 4352 1587 
C 3955 2208 3763 2714 3648 3469 
C 3718 3629 3725 3654 3789 3814 
L 5011 3814 
z
M 2618 4326 
C 2618 4582 2624 4774 2643 4973 
C 2438 4947 2266 4941 1984 4941 
L 1120 4941 
C 832 4941 634 4954 461 4979 
L 461 4461 
C 659 4486 845 4493 1120 4493 
L 2150 4493 
L 2150 3130 
L 1152 3130 
C 864 3130 698 3136 493 3155 
C 518 2970 525 2810 525 2458 
L 525 851 
C 525 339 685 243 1549 243 
C 2182 243 2509 320 2656 493 
C 2771 634 2835 934 2867 1498 
C 2688 1549 2554 1606 2381 1709 
C 2381 1030 2342 845 2208 781 
C 2093 730 1894 704 1549 704 
C 1075 704 1005 736 1005 973 
L 1005 2694 
L 1939 2694 
C 2272 2694 2438 2688 2643 2669 
C 2624 2854 2618 3059 2618 3354 
L 2618 4326 
z
" transform="scale(0.015625)"/>
      <path id="HiraginoSans-W4-9769" d="M 4506 4346 
L 5293 4346 
C 5619 4346 5811 4339 6016 4314 
L 6016 4813 
C 5837 4787 5638 4774 5286 4774 
L 4506 4774 
L 4506 4845 
C 4506 5011 4518 5165 4544 5318 
L 4000 5318 
C 4019 5171 4032 5011 4032 4845 
L 4032 4774 
L 2323 4774 
L 2323 4845 
C 2323 5018 2336 5152 2355 5318 
L 1818 5318 
C 1837 5165 1850 5018 1850 4845 
L 1850 4774 
L 1126 4774 
C 800 4774 576 4787 397 4813 
L 397 4314 
C 582 4333 806 4346 1120 4346 
L 1850 4346 
L 1850 3917 
C 1850 3725 1843 3603 1818 3430 
C 2003 3443 2240 3456 2381 3456 
L 2925 3456 
L 2925 3002 
L 1702 3002 
C 1402 3002 1216 3008 1018 3034 
C 1037 2861 1043 2720 1043 2464 
L 1043 1990 
C 1043 1734 1037 1613 1018 1440 
C 1184 1459 1350 1466 1741 1466 
L 2925 1466 
L 2925 966 
L 1139 966 
C 813 966 608 979 410 1005 
L 410 486 
C 627 512 832 525 1146 525 
L 2925 525 
L 2925 173 
C 2925 -96 2912 -288 2880 -531 
L 3443 -531 
C 3405 -275 3392 -70 3392 173 
L 3392 525 
L 5274 525 
C 5581 525 5792 512 5997 486 
L 5997 1005 
C 5792 979 5587 966 5267 966 
L 3392 966 
L 3392 1466 
L 4704 1466 
C 5088 1466 5261 1459 5427 1440 
C 5408 1594 5402 1734 5402 1990 
L 5402 2464 
C 5402 2720 5408 2874 5427 3034 
C 5229 3008 5043 3002 4742 3002 
L 3392 3002 
L 3392 3456 
L 3987 3456 
C 4122 3456 4339 3450 4538 3430 
C 4518 3584 4506 3731 4506 3917 
L 4506 4346 
z
M 4032 4346 
L 4032 3846 
L 2323 3846 
L 2323 4346 
L 4032 4346 
z
M 3392 1875 
L 3392 2598 
L 4922 2598 
L 4922 1875 
L 3392 1875 
z
M 2925 1875 
L 1523 1875 
L 1523 2598 
L 2925 2598 
L 2925 1875 
z
" transform="scale(0.015625)"/>
     </defs>
     <use xlink:href="#HiraginoSans-W4-8cc7"/>
     <use xlink:href="#HiraginoSans-W4-672c" transform="translate(99.999985 0)"/>
     <use xlink:href="#HiraginoSans-W4-52b9" transform="translate(199.999969 0)"/>
     <use xlink:href="#HiraginoSans-W4-7387" transform="translate(299.999954 0)"/>
     <use xlink:href="#HiraginoSans-W4-6539" transform="translate(399.999939 0)"/>
     <use xlink:href="#HiraginoSans-W4-9769" transform="translate(499.999924 0)"/>
    </g>
    <!-- PBR是正 -->
    <g style="fill: #17365d" transform="translate(124.138359 193.468362) scale(0.11 -0.11)">
     <defs>
      <path id="HiraginoSans-W4-50" d="M 1178 0 
C 1139 230 1126 435 1126 755 
L 1126 1965 
L 2496 1965 
C 3533 1965 4128 2522 4128 3494 
C 4128 4416 3558 4934 2528 4934 
L 1210 4934 
C 909 4934 710 4941 480 4954 
C 518 4678 531 4480 531 4198 
L 531 749 
C 531 429 518 243 480 0 
L 1178 0 
z
M 1126 2490 
L 1126 4410 
L 2496 4410 
C 3162 4410 3507 4083 3507 3469 
C 3507 2842 3142 2490 2496 2490 
L 1126 2490 
z
" transform="scale(0.015625)"/>
      <path id="HiraginoSans-W4-42" d="M 1216 4934 
C 838 4934 672 4941 486 4947 
C 525 4710 538 4518 538 4237 
L 538 794 
C 538 410 525 250 480 -13 
C 717 0 896 0 1216 0 
L 2694 0 
C 3699 0 4269 493 4269 1363 
C 4269 1773 4134 2099 3878 2330 
C 3706 2483 3558 2547 3251 2605 
C 3507 2688 3616 2746 3750 2867 
C 3981 3078 4096 3360 4096 3731 
C 4096 4506 3565 4934 2624 4934 
L 1216 4934 
z
M 1133 2848 
L 1133 4416 
L 2586 4416 
C 3181 4416 3488 4160 3488 3667 
C 3488 3142 3162 2848 2592 2848 
L 1133 2848 
z
M 1133 2336 
L 2611 2336 
C 3296 2336 3648 2022 3648 1421 
C 3648 832 3290 518 2630 518 
L 1133 518 
L 1133 2336 
z
" transform="scale(0.015625)"/>
      <path id="HiraginoSans-W4-52" d="M 4512 0 
C 4422 154 4307 390 4218 608 
C 4013 1082 3859 1414 3718 1690 
C 3488 2138 3328 2310 3072 2394 
C 3418 2477 3578 2554 3763 2726 
C 4006 2957 4122 3258 4122 3667 
C 4122 4486 3603 4934 2656 4934 
L 1216 4934 
C 902 4934 704 4941 480 4954 
C 518 4685 531 4486 531 4192 
L 531 755 
C 531 416 518 243 480 0 
L 1178 0 
C 1139 230 1126 416 1126 755 
L 1126 2202 
L 2234 2202 
C 2739 2202 2989 1952 3354 1075 
C 3616 442 3699 205 3725 0 
L 4512 0 
z
M 1126 2726 
L 1126 4410 
L 2611 4410 
C 3194 4410 3501 4134 3501 3610 
C 3501 3347 3424 3142 3270 2989 
C 3098 2822 2848 2726 2579 2726 
L 1126 2726 
z
" transform="scale(0.015625)"/>
      <path id="HiraginoSans-W4-662f" d="M 3021 294 
C 2560 429 2214 678 1875 1114 
C 1958 1318 1984 1382 2118 1786 
L 1600 1914 
C 1536 1517 1434 1229 1222 870 
C 992 467 698 160 301 -109 
C 448 -205 576 -326 685 -480 
C 1146 -109 1408 205 1677 691 
C 1990 333 2323 83 2675 -58 
C 3142 -256 3872 -352 4832 -352 
C 5139 -352 5459 -346 5920 -320 
C 5952 -122 5997 32 6074 198 
C 5402 147 5050 128 4627 128 
C 4186 128 3814 154 3507 192 
L 3507 1056 
L 4864 1056 
C 5126 1056 5312 1050 5485 1024 
L 5485 1504 
C 5325 1478 5203 1472 4864 1472 
L 3507 1472 
L 3507 2144 
L 5363 2144 
C 5600 2144 5798 2131 6029 2106 
L 6029 2611 
C 5850 2586 5651 2573 5363 2573 
L 1043 2573 
C 762 2573 557 2586 378 2611 
L 378 2106 
C 608 2131 800 2144 1050 2144 
L 3021 2144 
L 3021 294 
z
M 4563 2970 
C 4870 2970 5043 2963 5267 2944 
C 5248 3117 5242 3264 5242 3507 
L 5242 4557 
C 5242 4800 5248 4941 5267 5114 
C 5056 5094 4845 5088 4538 5088 
L 1894 5088 
C 1581 5088 1376 5094 1152 5114 
C 1178 4947 1184 4800 1184 4557 
L 1184 3507 
C 1184 3258 1178 3110 1152 2944 
C 1382 2963 1562 2970 1856 2970 
L 4563 2970 
z
M 1658 4685 
L 4768 4685 
L 4768 4230 
L 1658 4230 
L 1658 4685 
z
M 1658 3840 
L 4768 3840 
L 4768 3360 
L 1658 3360 
L 1658 3840 
z
" transform="scale(0.015625)"/>
      <path id="HiraginoSans-W4-6b63" d="M 3130 307 
L 1907 307 
L 1907 2483 
C 1907 2803 1920 3027 1952 3245 
L 1344 3245 
C 1376 3008 1389 2803 1389 2477 
L 1389 307 
L 1126 307 
C 755 307 570 320 358 352 
L 358 -205 
C 608 -173 826 -160 1133 -160 
L 5274 -160 
C 5587 -160 5818 -173 6042 -205 
L 6042 352 
C 5811 320 5594 307 5267 307 
L 3654 307 
L 3654 2323 
L 4877 2323 
C 5158 2323 5370 2310 5549 2285 
L 5549 2822 
C 5370 2797 5184 2784 4877 2784 
L 3654 2784 
L 3654 4531 
L 5082 4531 
C 5344 4531 5594 4518 5818 4493 
L 5818 5037 
C 5600 5011 5376 4998 5082 4998 
L 1344 4998 
C 1037 4998 813 5011 608 5037 
L 608 4493 
C 832 4518 1069 4531 1350 4531 
L 3130 4531 
L 3130 307 
z
" transform="scale(0.015625)"/>
     </defs>
     <use xlink:href="#HiraginoSans-W4-50"/>
     <use xlink:href="#HiraginoSans-W4-42" transform="translate(67.599991 0)"/>
     <use xlink:href="#HiraginoSans-W4-52" transform="translate(139.699982 0)"/>
     <use xlink:href="#HiraginoSans-W4-662f" transform="translate(213.499969 0)"/>
     <use xlink:href="#HiraginoSans-W4-6b63" transform="translate(313.499954 0)"/>
    </g>
   </g>
   <g id="text_2">
    <!-- AI産業基盤 -->
    <g style="fill: #17365d" transform="translate(328.752187 181.036987) scale(0.11 -0.11)">
     <defs>
      <path id="HiraginoSans-W4-41" d="M 4826 0 
C 4730 166 4646 352 4486 742 
L 3053 4326 
C 2899 4710 2867 4806 2835 4934 
L 2054 4934 
C 2022 4781 1971 4634 1850 4326 
L 422 742 
C 269 358 198 205 83 0 
L 858 0 
C 902 230 954 397 1056 659 
L 1363 1453 
L 3546 1453 
L 3859 659 
C 3930 467 4006 218 4051 0 
L 4826 0 
z
M 3366 1978 
L 1542 1978 
L 2317 4026 
C 2330 4058 2349 4122 2381 4211 
C 2394 4256 2419 4333 2451 4422 
C 2566 4083 2566 4083 2586 4026 
L 3366 1978 
z
" transform="scale(0.015625)"/>
      <path id="HiraginoSans-W4-49" d="M 480 4934 
C 518 4698 531 4531 531 4186 
L 531 749 
C 531 410 518 243 480 0 
L 1190 0 
C 1152 224 1139 442 1139 749 
L 1139 4186 
C 1139 4486 1152 4704 1190 4934 
L 480 4934 
z
" transform="scale(0.015625)"/>
      <path id="HiraginoSans-W4-7523" d="M 3366 2125 
L 3366 1421 
L 2592 1421 
C 2298 1421 2157 1427 2003 1446 
L 2003 979 
C 2195 998 2355 1005 2598 1005 
L 3366 1005 
L 3366 166 
L 1792 166 
C 1536 166 1357 173 1203 198 
L 1203 -301 
C 1395 -282 1581 -269 1805 -269 
L 5421 -269 
C 5664 -269 5843 -282 6029 -307 
L 6029 198 
C 5882 173 5702 166 5434 166 
L 3840 166 
L 3840 1005 
L 4870 1005 
C 5133 1005 5274 998 5453 979 
L 5453 1453 
C 5306 1427 5165 1421 4870 1421 
L 3840 1421 
L 3840 2125 
L 5075 2125 
C 5357 2125 5542 2118 5709 2099 
L 5709 2579 
C 5562 2554 5395 2547 5082 2547 
L 3840 2547 
L 3840 2630 
C 3840 2848 3846 2963 3872 3110 
L 3334 3110 
C 3360 2976 3366 2861 3366 2630 
L 3366 2547 
L 2451 2547 
C 2541 2765 2541 2765 2650 3021 
L 2170 3130 
C 2118 2906 2048 2694 1939 2464 
C 1760 2067 1581 1818 1235 1491 
C 1389 1382 1466 1312 1594 1152 
C 1888 1485 2048 1715 2259 2125 
L 3366 2125 
z
M 3034 4819 
L 1382 4819 
C 1062 4819 883 4832 723 4858 
L 723 4365 
C 915 4384 1062 4390 1357 4390 
L 1926 4390 
C 2042 4173 2131 3949 2214 3686 
L 1504 3686 
C 1197 3686 1005 3693 768 3718 
C 787 3533 794 3194 794 2835 
C 794 2112 723 1382 608 915 
C 518 550 410 314 186 -32 
C 365 -173 429 -237 557 -448 
C 819 -58 966 288 1075 800 
C 1222 1440 1274 2074 1274 3264 
L 5254 3264 
C 5613 3264 5786 3258 5990 3232 
L 5990 3718 
C 5818 3693 5613 3686 5254 3686 
L 4333 3686 
C 4461 3904 4531 4045 4685 4390 
L 5229 4390 
C 5530 4390 5690 4384 5894 4365 
L 5894 4858 
C 5722 4832 5542 4819 5203 4819 
L 3539 4819 
L 3539 4941 
C 3539 5094 3552 5216 3578 5363 
L 3002 5363 
C 3027 5216 3034 5082 3034 4941 
L 3034 4819 
z
M 2720 3686 
C 2611 4006 2566 4115 2432 4390 
L 4160 4390 
C 4064 4122 3994 3981 3834 3686 
L 2720 3686 
z
" transform="scale(0.015625)"/>
      <path id="HiraginoSans-W4-696d" d="M 2938 2848 
L 2938 2432 
L 1658 2432 
C 1363 2432 1171 2438 986 2464 
L 986 2016 
C 1158 2042 1357 2048 1658 2048 
L 2938 2048 
L 2938 1606 
L 1126 1606 
C 781 1606 582 1619 397 1645 
L 397 1165 
C 621 1190 845 1203 1133 1203 
L 2592 1203 
C 1997 678 1306 358 301 141 
C 442 -19 506 -109 602 -307 
C 1190 -122 1568 38 1965 262 
C 2362 493 2592 666 2963 1037 
C 2950 806 2944 666 2944 525 
L 2944 134 
C 2944 -134 2931 -333 2906 -531 
L 3430 -531 
C 3405 -346 3392 -147 3392 128 
L 3392 525 
C 3392 659 3386 787 3373 1043 
C 4070 365 4672 38 5894 -307 
C 5984 -102 6042 -6 6176 160 
C 5139 346 4250 730 3744 1203 
L 5306 1203 
C 5594 1203 5805 1190 6035 1165 
L 6035 1645 
C 5862 1619 5664 1606 5299 1606 
L 3392 1606 
L 3392 2048 
L 4749 2048 
C 5056 2048 5248 2042 5427 2016 
L 5427 2464 
C 5254 2438 5056 2432 4749 2432 
L 3392 2432 
L 3392 2848 
L 5120 2848 
C 5427 2848 5613 2842 5798 2816 
L 5798 3277 
C 5613 3251 5446 3245 5120 3245 
L 4256 3245 
C 4378 3456 4467 3661 4576 3904 
L 5299 3904 
C 5606 3904 5843 3891 6029 3872 
L 6029 4346 
C 5843 4320 5651 4307 5318 4307 
L 4986 4307 
C 5152 4518 5267 4698 5446 4992 
L 4979 5184 
C 4864 4883 4736 4659 4480 4307 
L 3930 4307 
L 3930 4787 
C 3930 4998 3942 5184 3968 5312 
L 3450 5312 
C 3469 5190 3475 5024 3475 4800 
L 3475 4307 
L 2867 4307 
L 2867 4800 
C 2867 5043 2874 5190 2893 5312 
L 2374 5312 
C 2400 5171 2413 4998 2413 4787 
L 2413 4307 
L 1926 4307 
C 1741 4666 1651 4813 1376 5152 
L 934 4960 
C 1171 4710 1318 4518 1434 4307 
L 1062 4307 
C 730 4307 531 4320 346 4346 
L 346 3872 
C 538 3891 768 3904 1075 3904 
L 1850 3904 
C 1978 3686 2061 3507 2157 3245 
L 1274 3245 
C 954 3245 781 3251 602 3277 
L 602 2816 
C 787 2842 973 2848 1274 2848 
L 2938 2848 
z
M 2637 3245 
C 2547 3514 2496 3629 2368 3904 
L 4058 3904 
C 3968 3661 3891 3475 3763 3245 
L 2637 3245 
z
" transform="scale(0.015625)"/>
      <path id="HiraginoSans-W4-57fa" d="M 1619 4736 
L 1178 4736 
C 896 4736 691 4749 518 4774 
L 518 4288 
C 723 4307 928 4320 1178 4320 
L 1619 4320 
L 1619 2342 
L 979 2342 
C 704 2342 499 2355 326 2381 
L 326 1901 
C 506 1926 710 1939 979 1939 
L 1837 1939 
C 1491 1555 896 1248 173 1075 
C 307 896 346 832 422 614 
C 941 800 1242 947 1606 1197 
L 1606 762 
C 1773 781 1920 787 2170 787 
L 2912 787 
L 2912 154 
L 1382 154 
C 1043 154 838 166 685 186 
L 685 -307 
C 890 -282 1114 -269 1402 -269 
L 5050 -269 
C 5338 -269 5542 -282 5754 -307 
L 5754 192 
C 5562 160 5389 154 5075 154 
L 3373 154 
L 3373 787 
L 4237 787 
C 4499 787 4634 781 4806 762 
L 4806 1197 
C 5190 947 5498 806 5997 634 
C 6074 826 6131 947 6246 1101 
C 5472 1293 4928 1555 4525 1939 
L 5408 1939 
C 5683 1939 5882 1926 6067 1901 
L 6067 2381 
C 5875 2355 5658 2342 5395 2342 
L 4742 2342 
L 4742 4320 
L 5286 4320 
C 5536 4320 5741 4307 5952 4288 
L 5952 4774 
C 5779 4749 5568 4736 5286 4736 
L 4742 4736 
L 4742 4787 
C 4742 4986 4755 5165 4781 5306 
L 4230 5306 
C 4256 5184 4269 5018 4269 4787 
L 4269 4736 
L 2093 4736 
L 2093 4787 
C 2093 4986 2099 5152 2125 5306 
L 1581 5306 
C 1606 5171 1619 5018 1619 4787 
L 1619 4736 
z
M 2093 2342 
L 2093 2752 
L 4269 2752 
L 4269 2342 
L 2093 2342 
z
M 2093 3136 
L 2093 3533 
L 4269 3533 
L 4269 3136 
L 2093 3136 
z
M 2093 3917 
L 2093 4320 
L 4269 4320 
L 4269 3917 
L 2093 3917 
z
M 3942 1939 
C 4192 1645 4416 1453 4755 1222 
C 4614 1210 4486 1203 4237 1203 
L 3373 1203 
L 3373 1248 
C 3373 1472 3379 1594 3405 1734 
L 2880 1734 
C 2899 1594 2912 1466 2912 1248 
L 2912 1203 
L 2170 1203 
C 1933 1203 1766 1210 1638 1222 
C 1971 1459 2163 1645 2400 1939 
L 3942 1939 
z
" transform="scale(0.015625)"/>
      <path id="HiraginoSans-W4-76e4" d="M 2272 3891 
C 2074 4166 2010 4237 1760 4474 
L 1478 4275 
C 1722 4032 1805 3930 1978 3667 
L 2272 3891 
z
M 365 3027 
C 435 3046 570 3059 838 3085 
C 762 2509 640 2227 314 1882 
C 493 1766 550 1722 685 1568 
C 1037 1997 1184 2394 1261 3117 
C 1485 3142 1530 3142 1696 3162 
L 1696 2694 
C 1696 2515 1690 2406 1670 2291 
L 2080 2291 
C 2067 2387 2061 2502 2061 2694 
L 2061 3206 
C 2330 3238 2330 3238 2509 3264 
L 2509 2246 
C 2509 2112 2477 2080 2336 2080 
C 2195 2080 1978 2099 1818 2131 
C 1875 2003 1901 1875 1914 1741 
C 2310 1722 2310 1722 2336 1722 
C 2810 1722 2931 1811 2931 2189 
L 2931 3328 
L 3200 3373 
L 3206 3731 
L 2931 3693 
L 2931 4416 
C 2931 4621 2938 4806 2957 4941 
C 2854 4922 2624 4909 2374 4909 
L 2054 4909 
C 2112 5024 2112 5024 2131 5062 
C 2208 5210 2214 5235 2259 5331 
L 1798 5427 
C 1754 5229 1715 5114 1613 4909 
L 1491 4909 
C 1210 4909 1011 4915 870 4941 
C 890 4755 902 4589 902 4307 
C 902 3955 896 3744 877 3482 
C 781 3482 659 3475 595 3475 
C 499 3475 403 3482 307 3494 
L 365 3027 
z
M 2509 4550 
L 2509 3629 
C 2035 3571 1754 3546 1293 3507 
C 1312 3821 1318 4013 1318 4550 
L 2509 4550 
z
M 5504 3597 
C 5414 3578 5299 3571 5062 3571 
L 3834 3571 
C 3622 3571 3475 3578 3334 3597 
L 3334 3181 
C 3501 3194 3629 3200 3834 3200 
L 3891 3200 
L 3584 3027 
C 3846 2694 3930 2611 4154 2419 
C 3795 2246 3450 2131 3014 2054 
C 3168 1907 3219 1837 3290 1696 
C 3808 1830 4128 1952 4499 2170 
C 4678 2054 4877 1952 5114 1850 
C 5318 1760 5331 1754 5888 1587 
C 5971 1786 6016 1869 6118 2003 
C 5549 2112 5248 2214 4870 2413 
C 5267 2714 5414 2861 5779 3347 
L 5504 3597 
z
M 5126 3200 
C 4934 2963 4787 2829 4506 2630 
C 4250 2822 4141 2925 3923 3200 
L 5126 3200 
z
M 4742 4762 
L 4742 4102 
C 4742 3846 4832 3808 5389 3808 
C 5683 3808 5869 3853 5965 3949 
C 6061 4051 6093 4198 6106 4608 
C 5920 4646 5856 4666 5722 4742 
C 5715 4390 5696 4256 5645 4218 
C 5619 4192 5517 4173 5453 4173 
C 5165 4173 5152 4179 5152 4269 
L 5152 4826 
C 5152 4979 5158 5075 5171 5171 
C 5062 5158 4947 5152 4755 5152 
L 4070 5152 
C 3891 5152 3782 5158 3661 5171 
C 3674 5114 3680 5037 3680 4960 
C 3680 4659 3654 4493 3590 4346 
C 3520 4186 3360 4045 3149 3955 
C 3290 3859 3360 3789 3450 3642 
C 3616 3731 3750 3840 3846 3968 
C 3987 4154 4038 4346 4070 4762 
L 4742 4762 
z
M 1043 128 
L 794 128 
C 589 128 467 134 314 160 
L 314 -314 
C 531 -294 742 -282 1011 -282 
L 5453 -282 
C 5702 -282 5920 -294 6118 -314 
L 6118 160 
C 5984 134 5856 128 5613 128 
L 5357 128 
L 5357 1056 
C 5357 1267 5363 1395 5382 1555 
C 5101 1536 5005 1530 4762 1530 
L 1658 1530 
C 1434 1530 1286 1536 1011 1555 
C 1030 1376 1043 1222 1043 1005 
L 1043 128 
z
M 1510 1120 
L 2330 1120 
L 2330 128 
L 1510 128 
L 1510 1120 
z
M 2765 1120 
L 3610 1120 
L 3610 128 
L 2765 128 
L 2765 1120 
z
M 4045 1120 
L 4890 1120 
L 4890 128 
L 4045 128 
L 4045 1120 
z
" transform="scale(0.015625)"/>
     </defs>
     <use xlink:href="#HiraginoSans-W4-41"/>
     <use xlink:href="#HiraginoSans-W4-49" transform="translate(76.599991 0)"/>
     <use xlink:href="#HiraginoSans-W4-7523" transform="translate(102.699982 0)"/>
     <use xlink:href="#HiraginoSans-W4-696d" transform="translate(202.699966 0)"/>
     <use xlink:href="#HiraginoSans-W4-57fa" transform="translate(302.699951 0)"/>
     <use xlink:href="#HiraginoSans-W4-76e4" transform="translate(402.699936 0)"/>
    </g>
    <!-- 半導体・電力・光通信 -->
    <g style="fill: #17365d" transform="translate(301.4 193.468362) scale(0.11 -0.11)">
     <defs>
      <path id="HiraginoSans-W4-534a" d="M 3373 3091 
L 3373 4621 
C 3373 4922 3386 5094 3418 5331 
L 2816 5331 
C 2848 5094 2861 4915 2861 4614 
L 2861 3091 
L 1318 3091 
C 1024 3091 813 3104 627 3130 
L 627 2611 
C 813 2637 1030 2650 1312 2650 
L 2861 2650 
L 2861 1683 
L 1011 1683 
C 704 1683 480 1696 314 1722 
L 314 1197 
C 493 1222 710 1235 1011 1235 
L 2861 1235 
L 2861 211 
C 2861 -77 2842 -339 2816 -512 
L 3418 -512 
C 3386 -262 3373 -96 3373 205 
L 3373 1235 
L 5357 1235 
C 5664 1235 5875 1222 6054 1197 
L 6054 1722 
C 5888 1696 5670 1683 5363 1683 
L 3373 1683 
L 3373 2650 
L 5069 2650 
C 5363 2650 5549 2637 5760 2611 
L 5760 3130 
C 5581 3104 5376 3091 5069 3091 
L 3373 3091 
z
M 768 4794 
C 1203 4333 1434 4013 1805 3334 
L 2246 3597 
C 1920 4186 1677 4531 1229 5043 
L 768 4794 
z
M 4973 5056 
C 4646 4410 4384 4032 3955 3565 
L 4378 3322 
C 4768 3757 4986 4064 5440 4813 
L 4973 5056 
z
" transform="scale(0.015625)"/>
      <path id="HiraginoSans-W4-5c0e" d="M 2605 4819 
C 2298 4819 2131 4826 1978 4851 
L 1978 4416 
C 2144 4435 2342 4442 2630 4442 
L 3648 4442 
C 3590 4326 3571 4282 3488 4134 
L 3034 4134 
C 2694 4134 2515 4141 2368 4154 
C 2387 4038 2394 3872 2394 3635 
L 2394 2541 
C 2394 2272 2387 2157 2374 2029 
C 2566 2042 2752 2048 3002 2048 
L 4979 2048 
C 5216 2048 5376 2042 5510 2029 
C 5491 2163 5485 2330 5485 2586 
L 5485 3622 
C 5485 3859 5491 4006 5510 4154 
C 5376 4141 5216 4134 4896 4134 
L 3981 4134 
C 4038 4243 4077 4314 4134 4442 
L 5331 4442 
C 5626 4442 5818 4435 5971 4416 
L 5971 4851 
C 5824 4826 5651 4819 5331 4819 
L 4768 4819 
C 4883 4954 4979 5082 5126 5280 
L 4653 5408 
C 4518 5171 4403 5005 4250 4819 
L 3520 4819 
C 3418 5024 3283 5235 3142 5421 
L 2675 5312 
C 2835 5139 2861 5094 3034 4819 
L 2605 4819 
z
M 2822 3802 
L 5050 3802 
L 5050 3546 
L 2822 3546 
L 2822 3802 
z
M 2822 3226 
L 5050 3226 
L 5050 2970 
L 2822 2970 
L 2822 3226 
z
M 2822 2656 
L 5050 2656 
L 5050 2381 
L 2822 2381 
L 2822 2656 
z
M 4422 1402 
L 4422 1082 
L 1114 1082 
C 800 1082 608 1094 422 1120 
L 422 640 
C 621 666 813 678 1120 678 
L 2035 678 
L 1696 416 
C 2067 160 2285 -38 2573 -390 
L 2944 -58 
C 2624 262 2432 422 2054 678 
L 4422 678 
L 4422 115 
C 4422 -19 4378 -45 4134 -45 
C 3923 -45 3706 -32 3405 6 
C 3488 -160 3526 -262 3552 -461 
C 3776 -474 3885 -474 4045 -474 
C 4762 -474 4883 -403 4883 0 
L 4883 678 
L 5312 678 
C 5619 678 5824 666 6010 640 
L 6010 1120 
C 5824 1094 5632 1082 5318 1082 
L 4883 1082 
L 4883 1408 
C 5818 1421 5830 1421 6035 1427 
C 6067 1632 6099 1709 6189 1862 
C 5690 1805 4691 1773 3488 1773 
C 2336 1773 2022 1875 1773 2323 
L 1773 3072 
C 1773 3392 1779 3507 1798 3654 
C 1658 3635 1523 3629 1318 3629 
L 922 3629 
C 678 3629 570 3635 422 3661 
L 422 3213 
C 570 3232 646 3238 883 3238 
L 1318 3238 
L 1318 2310 
C 998 2080 563 1843 346 1773 
L 563 1318 
C 1171 1696 1293 1773 1555 1978 
C 1715 1754 1882 1619 2131 1536 
C 2432 1427 2867 1395 3802 1395 
L 4422 1402 
z
M 525 4992 
C 934 4685 1139 4480 1459 4096 
L 1792 4435 
C 1427 4832 1274 4973 851 5286 
L 525 4992 
z
" transform="scale(0.015625)"/>
      <path id="HiraginoSans-W4-4f53" d="M 3648 774 
L 3648 179 
C 3648 -51 3635 -262 3603 -486 
L 4147 -486 
C 4122 -256 4109 -51 4109 179 
L 4109 774 
L 4672 774 
C 4896 774 5018 768 5171 749 
L 5171 1242 
C 5030 1216 4896 1210 4666 1210 
L 4109 1210 
L 4109 2406 
C 4109 2669 4102 2893 4090 3187 
C 4416 2477 4659 2074 5050 1594 
C 5331 1242 5594 979 5952 685 
C 6074 883 6163 1005 6298 1126 
C 5389 1786 4883 2406 4307 3578 
L 5440 3578 
C 5683 3578 5920 3565 6112 3539 
L 6112 4064 
C 5920 4038 5709 4026 5434 4026 
L 4109 4026 
L 4109 4698 
C 4109 4922 4128 5158 4154 5318 
L 3597 5318 
C 3629 5126 3642 4902 3642 4698 
L 3642 4026 
L 2554 4026 
C 2298 4026 2067 4038 1894 4058 
L 1894 3539 
C 2099 3565 2310 3578 2541 3578 
L 3443 3578 
C 3264 3155 3098 2848 2835 2470 
C 2445 1901 2086 1530 1542 1126 
C 1734 947 1792 883 1888 717 
C 2323 1082 2624 1408 2918 1811 
C 3238 2259 3405 2560 3667 3181 
C 3654 2899 3648 2707 3648 2394 
L 3648 1210 
L 3149 1210 
C 2918 1210 2778 1216 2637 1242 
L 2637 749 
C 2790 768 2918 774 3136 774 
L 3648 774 
z
M 1011 275 
C 1011 -58 1005 -250 973 -486 
L 1523 -486 
C 1504 -269 1491 -45 1491 262 
L 1491 3706 
C 1696 4122 1754 4250 1952 4787 
C 2022 4973 2042 5024 2118 5216 
L 1594 5370 
C 1542 5062 1485 4864 1350 4525 
C 1075 3814 698 3219 154 2624 
C 294 2419 333 2355 416 2144 
C 691 2458 832 2662 1030 3008 
C 1018 2726 1011 2547 1011 2240 
L 1011 275 
z
" transform="scale(0.015625)"/>
      <path id="HiraginoSans-W4-30fb" d="M 3206 3027 
C 2880 3027 2611 2758 2611 2432 
C 2611 2112 2880 1843 3206 1843 
C 3526 1843 3795 2112 3795 2438 
C 3795 2765 3533 3027 3206 3027 
z
" transform="scale(0.015625)"/>
      <path id="HiraginoSans-W4-96fb" d="M 2893 4768 
L 2893 4422 
L 1158 4422 
C 787 4422 608 4429 435 4448 
C 454 4294 461 4160 461 3955 
L 461 3571 
C 461 3373 448 3245 422 3078 
L 909 3078 
L 909 4058 
L 2893 4058 
L 2893 3322 
C 2893 3040 2880 2867 2854 2701 
L 3379 2701 
C 3354 2874 3347 3002 3347 3322 
L 3347 4058 
L 5459 4058 
L 5459 3078 
L 5946 3078 
C 5914 3251 5907 3360 5907 3571 
L 5907 3955 
C 5907 4173 5914 4301 5933 4448 
C 5760 4429 5581 4422 5203 4422 
L 3347 4422 
L 3347 4768 
L 4896 4768 
C 5178 4768 5325 4762 5523 4742 
L 5523 5203 
C 5331 5178 5139 5165 4870 5165 
L 1530 5165 
C 1267 5165 1062 5178 851 5203 
L 851 4742 
C 1056 4762 1235 4768 1498 4768 
L 2893 4768 
z
M 2886 544 
L 2886 51 
C 2886 -339 3059 -397 4256 -397 
C 5958 -397 6042 -346 6080 685 
C 5824 762 5786 781 5613 870 
C 5606 384 5581 192 5498 128 
C 5395 38 5062 6 4358 6 
C 3738 6 3488 26 3392 77 
C 3354 96 3341 128 3341 186 
L 3341 544 
L 4800 544 
C 5050 544 5197 538 5395 518 
C 5382 640 5376 781 5376 986 
L 5376 1946 
C 5376 2208 5382 2362 5402 2528 
C 5235 2509 5075 2502 4800 2502 
L 1536 2502 
C 1280 2502 1133 2509 966 2528 
C 986 2355 992 2182 992 1946 
L 992 762 
C 992 557 979 365 954 198 
L 1459 198 
L 1459 544 
L 2886 544 
z
M 2886 2138 
L 2886 1734 
L 1453 1734 
L 1453 2138 
L 2886 2138 
z
M 2886 1376 
L 2886 922 
L 1453 922 
L 1453 1376 
L 2886 1376 
z
M 3341 922 
L 3341 1376 
L 4915 1376 
L 4915 922 
L 3341 922 
z
M 3341 1734 
L 3341 2138 
L 4915 2138 
L 4915 1734 
L 3341 1734 
z
M 1235 3443 
C 1344 3456 1446 3462 1606 3462 
L 2195 3462 
C 2349 3462 2451 3456 2554 3443 
L 2554 3789 
C 2458 3776 2349 3770 2195 3770 
L 1606 3770 
C 1434 3770 1344 3776 1235 3789 
L 1235 3443 
z
M 1235 2822 
C 1370 2835 1440 2842 1606 2842 
L 2195 2842 
C 2349 2842 2432 2835 2554 2822 
L 2554 3168 
C 2458 3155 2349 3149 2195 3149 
L 1606 3149 
C 1427 3149 1338 3155 1235 3168 
L 1235 2822 
z
M 3718 3443 
C 3821 3456 3923 3462 4090 3462 
L 4781 3462 
C 4941 3462 5037 3456 5139 3443 
L 5139 3789 
C 5043 3776 4941 3770 4781 3770 
L 4090 3770 
C 3917 3770 3827 3776 3718 3789 
L 3718 3443 
z
M 3718 2822 
C 3827 2835 3923 2842 4090 2842 
L 4781 2842 
C 4941 2842 5037 2835 5139 2822 
L 5139 3168 
C 5043 3155 4934 3149 4781 3149 
L 4090 3149 
C 3910 3149 3814 3155 3718 3168 
L 3718 2822 
z
" transform="scale(0.015625)"/>
      <path id="HiraginoSans-W4-529b" d="M 3226 4006 
C 3238 4358 3245 4538 3251 4819 
C 3258 5088 3264 5210 3290 5350 
L 2675 5350 
C 2707 5210 2714 5056 2714 4742 
C 2714 4416 2707 4198 2701 4006 
L 1459 4006 
C 1075 4006 851 4019 659 4045 
L 659 3494 
C 851 3520 1101 3533 1453 3533 
L 2662 3533 
C 2515 2157 2195 1414 1472 781 
C 1152 499 890 333 371 90 
C 525 -19 634 -147 768 -365 
C 2349 531 2989 1562 3187 3533 
L 5094 3533 
C 5082 2560 5037 1728 4960 1094 
C 4870 371 4781 218 4448 218 
C 4122 218 3744 269 3264 371 
C 3334 166 3366 26 3392 -198 
C 3866 -262 4173 -288 4486 -288 
C 5075 -288 5274 -109 5395 538 
C 5485 1005 5581 2227 5594 3162 
C 5606 3808 5606 3808 5632 4038 
C 5427 4013 5242 4006 4858 4006 
L 3226 4006 
z
" transform="scale(0.015625)"/>
      <path id="HiraginoSans-W4-5149" d="M 2880 2995 
L 1094 2995 
C 826 2995 634 3008 416 3034 
L 416 2509 
C 614 2534 838 2547 1088 2547 
L 2144 2547 
C 2118 1779 1984 1274 1690 877 
C 1382 454 934 179 218 -38 
C 371 -192 442 -288 550 -474 
C 1651 -77 2227 486 2490 1427 
C 2592 1786 2618 2010 2643 2547 
L 3482 2547 
L 3482 134 
C 3482 -109 3520 -211 3648 -282 
C 3795 -371 3987 -390 4576 -390 
C 5299 -390 5536 -358 5690 -243 
C 5907 -83 5997 192 6074 960 
C 5888 1005 5786 1043 5594 1158 
C 5568 614 5517 307 5434 198 
C 5357 102 5184 77 4666 77 
C 4032 77 3968 90 3968 243 
L 3968 2547 
L 5306 2547 
C 5594 2547 5798 2534 5984 2509 
L 5984 3034 
C 5773 3008 5562 2995 5306 2995 
L 3379 2995 
L 3379 4646 
C 3379 4902 3392 5075 3418 5248 
L 2842 5248 
C 2867 5050 2880 4883 2880 4646 
L 2880 2995 
z
M 781 4710 
C 1229 4192 1414 3904 1754 3238 
L 2195 3514 
C 1830 4160 1658 4410 1216 4941 
L 781 4710 
z
M 5011 4960 
C 4685 4269 4454 3917 4006 3430 
L 4442 3174 
C 4883 3686 5082 3987 5478 4730 
L 5011 4960 
z
" transform="scale(0.015625)"/>
      <path id="HiraginoSans-W4-901a" d="M 2810 3942 
C 2502 3942 2298 3949 2112 3974 
C 2131 3795 2138 3629 2138 3245 
L 2138 1222 
C 2138 902 2125 717 2099 544 
L 2624 544 
C 2592 698 2586 877 2586 1222 
L 2586 1658 
L 3699 1658 
L 3699 1306 
C 3699 986 3686 768 3661 608 
L 4166 608 
C 4141 787 4134 966 4134 1306 
L 4134 1658 
L 5376 1658 
L 5376 1152 
C 5376 1005 5350 973 5229 973 
C 5030 973 4915 986 4698 1018 
C 4762 870 4781 768 4806 576 
C 5075 570 5075 570 5158 570 
C 5722 570 5824 653 5824 1126 
L 5824 3200 
C 5824 3571 5830 3802 5850 3974 
C 5702 3949 5510 3942 5165 3942 
L 4422 3942 
C 4851 4179 5158 4390 5613 4762 
C 5683 4819 5715 4838 5773 4883 
L 5562 5158 
C 5446 5133 5280 5126 4896 5126 
L 2707 5126 
C 2362 5126 2189 5133 2010 5165 
L 2010 4691 
C 2195 4717 2355 4723 2656 4723 
L 4922 4723 
C 4595 4454 4403 4320 4026 4102 
C 3654 4371 3494 4480 3187 4666 
L 2835 4429 
C 3085 4294 3386 4115 3616 3942 
L 2810 3942 
z
M 4134 3558 
L 5376 3558 
L 5376 2995 
L 4134 2995 
L 4134 3558 
z
M 3699 3558 
L 3699 2995 
L 2586 2995 
L 2586 3558 
L 3699 3558 
z
M 2586 2611 
L 3699 2611 
L 3699 2042 
L 2586 2042 
L 2586 2611 
z
M 5376 2042 
L 4134 2042 
L 4134 2611 
L 5376 2611 
L 5376 2042 
z
M 301 4915 
C 736 4512 998 4211 1325 3738 
L 1709 4096 
C 1382 4531 1101 4832 659 5235 
L 301 4915 
z
M 275 2323 
C 410 2349 518 2355 691 2355 
L 1062 2355 
L 1062 870 
C 742 538 403 269 173 160 
L 429 -346 
C 512 -269 531 -250 602 -192 
C 698 -109 710 -96 832 13 
C 1018 192 1056 224 1267 461 
C 1478 186 1606 64 1818 -51 
C 2214 -269 2643 -326 3885 -326 
C 4493 -326 5325 -307 6003 -282 
C 6035 -83 6086 90 6163 275 
C 5357 179 4531 134 3507 134 
C 2739 134 2304 192 2048 333 
C 1779 480 1651 608 1523 870 
L 1523 2150 
C 1523 2477 1530 2630 1549 2835 
C 1402 2810 1261 2803 1069 2803 
L 736 2803 
C 531 2803 422 2810 275 2835 
L 275 2323 
z
" transform="scale(0.015625)"/>
      <path id="HiraginoSans-W4-4fe1" d="M 1440 3846 
C 1613 4224 1728 4512 1837 4851 
C 1894 5037 1914 5101 1958 5216 
L 1446 5382 
C 1408 5088 1350 4877 1203 4486 
C 941 3770 621 3226 160 2701 
C 301 2509 352 2426 429 2234 
C 723 2618 826 2771 992 3110 
C 973 2758 973 2637 973 2355 
L 973 282 
C 973 -45 960 -237 934 -480 
L 1472 -480 
C 1446 -269 1440 -26 1440 269 
L 1440 3846 
z
M 5555 5088 
C 5402 5062 5203 5050 4896 5050 
L 2918 5050 
C 2675 5050 2509 5062 2330 5088 
L 2330 4589 
C 2490 4614 2643 4621 2886 4621 
L 4922 4621 
C 5197 4621 5395 4614 5555 4589 
L 5555 5088 
z
M 5555 3283 
C 5427 3264 5248 3251 5011 3251 
L 2803 3251 
C 2560 3251 2458 3258 2304 3277 
L 2304 2810 
C 2451 2829 2579 2835 2803 2835 
L 5018 2835 
C 5242 2835 5408 2829 5555 2803 
L 5555 3283 
z
M 5555 2394 
C 5408 2368 5254 2362 5024 2362 
L 2803 2362 
C 2566 2362 2438 2368 2304 2387 
L 2304 1920 
C 2451 1939 2573 1946 2803 1946 
L 5024 1946 
C 5254 1946 5402 1939 5555 1914 
L 5555 2394 
z
M 2739 -154 
L 5069 -154 
L 5069 -486 
L 5574 -486 
C 5549 -275 5542 -128 5542 115 
L 5542 915 
C 5542 1158 5549 1331 5568 1504 
C 5440 1485 5267 1478 4986 1478 
L 2778 1478 
C 2554 1478 2387 1485 2246 1504 
C 2259 1338 2272 1126 2272 909 
L 2272 109 
C 2272 -134 2259 -320 2240 -486 
L 2739 -486 
L 2739 -154 
z
M 2739 275 
L 2739 1050 
L 5069 1050 
L 5069 275 
L 2739 275 
z
M 1869 3699 
C 2029 3718 2202 3731 2406 3731 
L 5478 3731 
C 5715 3731 5914 3718 6093 3699 
L 6093 4205 
C 5920 4179 5741 4166 5478 4166 
L 2406 4166 
C 2182 4166 2035 4179 1869 4198 
L 1869 3699 
z
" transform="scale(0.015625)"/>
     </defs>
     <use xlink:href="#HiraginoSans-W4-534a"/>
     <use xlink:href="#HiraginoSans-W4-5c0e" transform="translate(99.999985 0)"/>
     <use xlink:href="#HiraginoSans-W4-4f53" transform="translate(199.999969 0)"/>
     <use xlink:href="#HiraginoSans-W4-30fb" transform="translate(299.999954 0)"/>
     <use xlink:href="#HiraginoSans-W4-96fb" transform="translate(399.999939 0)"/>
     <use xlink:href="#HiraginoSans-W4-529b" transform="translate(499.999924 0)"/>
     <use xlink:href="#HiraginoSans-W4-30fb" transform="translate(599.999908 0)"/>
     <use xlink:href="#HiraginoSans-W4-5149" transform="translate(699.999893 0)"/>
     <use xlink:href="#HiraginoSans-W4-901a" transform="translate(799.999878 0)"/>
     <use xlink:href="#HiraginoSans-W4-4fe1" transform="translate(899.999863 0)"/>
    </g>
   </g>
   <g id="text_3">
    <!-- 信頼インフラ -->
    <g style="fill: #17365d" transform="translate(532.92 181.036987) scale(0.11 -0.11)">
     <defs>
      <path id="HiraginoSans-W4-983c" d="M 3078 4627 
C 3200 4646 3328 4653 3578 4653 
L 4333 4653 
C 4282 4461 4205 4243 4109 4019 
L 3814 4019 
C 3539 4019 3398 4026 3258 4038 
C 3277 3853 3283 3706 3283 3437 
L 3283 1306 
C 3283 1062 3277 922 3264 723 
C 3411 736 3578 742 3802 742 
L 5280 742 
C 5478 742 5632 736 5830 723 
C 5818 922 5811 1114 5811 1350 
L 5811 3443 
C 5811 3686 5818 3878 5830 4038 
C 5683 4026 5549 4019 5235 4019 
L 4582 4019 
C 4672 4224 4723 4371 4813 4653 
L 5421 4653 
C 5741 4653 5862 4646 6067 4621 
L 6067 5126 
C 5907 5101 5734 5088 5421 5088 
L 3674 5088 
C 3379 5088 3226 5094 3040 5126 
L 3040 4640 
C 2906 4627 2771 4621 2509 4621 
L 1939 4621 
L 1939 4672 
C 1939 4966 1946 5126 1971 5286 
L 1472 5286 
C 1498 5126 1510 4954 1510 4653 
L 1510 4621 
L 979 4621 
C 666 4621 518 4627 339 4653 
L 339 4160 
C 512 4186 685 4192 979 4192 
L 1510 4192 
L 1510 3635 
L 1107 3635 
C 813 3635 678 3642 512 3661 
C 531 3501 538 3366 538 3123 
L 538 2496 
C 538 2246 531 2112 512 1946 
C 672 1965 806 1971 1050 1971 
L 1382 1971 
C 1050 1344 646 851 147 467 
C 282 346 346 256 442 70 
C 954 550 1254 960 1542 1594 
C 1510 1184 1510 1178 1510 928 
L 1510 192 
C 1510 -154 1498 -301 1472 -493 
L 1978 -493 
C 1946 -307 1939 -173 1939 192 
L 1939 947 
C 1939 1139 1926 1363 1907 1626 
C 2170 1171 2368 928 2816 538 
C 2886 704 2944 787 3072 941 
C 2630 1254 2362 1530 2048 1971 
L 2394 1971 
C 2637 1971 2778 1965 2931 1946 
C 2912 2099 2912 2189 2912 2464 
L 2912 3162 
C 2912 3430 2912 3501 2931 3661 
C 2765 3642 2656 3635 2381 3635 
L 1939 3635 
L 1939 4192 
L 2509 4192 
C 2765 4192 2912 4186 3078 4166 
L 3078 4627 
z
M 1510 3232 
L 1510 2368 
L 960 2368 
L 960 3232 
L 1510 3232 
z
M 1939 3232 
L 2496 3232 
L 2496 2368 
L 1939 2368 
L 1939 3232 
z
M 3725 3616 
L 5363 3616 
L 5363 3072 
L 3725 3072 
L 3725 3616 
z
M 3725 2675 
L 5363 2675 
L 5363 2131 
L 3725 2131 
L 3725 2675 
z
M 3725 1734 
L 5363 1734 
L 5363 1158 
L 3725 1158 
L 3725 1734 
z
M 3866 672 
C 3661 448 3552 352 3334 198 
C 3085 32 2931 -51 2586 -179 
C 2720 -294 2803 -397 2893 -557 
C 3450 -301 3725 -102 4230 397 
L 3866 672 
z
M 4736 403 
C 5107 -13 5402 -243 5933 -557 
C 6061 -365 6112 -307 6259 -186 
C 5715 77 5434 275 5075 672 
L 4736 403 
z
" transform="scale(0.015625)"/>
      <path id="HiraginoSans-W4-30a4" d="M 4973 5114 
C 4794 4806 4346 4358 3763 3904 
C 2739 3110 1645 2566 429 2246 
C 589 2048 634 1971 730 1734 
C 1920 2144 2330 2330 3149 2829 
L 3149 525 
C 3149 122 3142 -26 3110 -224 
L 3763 -224 
C 3738 -45 3731 141 3731 531 
L 3731 3187 
C 4301 3597 4806 4038 5267 4525 
C 5370 4634 5402 4659 5498 4742 
L 4973 5114 
z
" transform="scale(0.015625)"/>
      <path id="HiraginoSans-W4-30f3" d="M 934 4160 
C 1504 3821 2016 3405 2496 2893 
L 2886 3373 
C 2419 3827 2022 4134 1312 4589 
L 934 4160 
z
M 1030 -19 
C 1171 26 1222 38 1427 83 
C 2458 314 3174 595 3827 1043 
C 4685 1626 5280 2368 5805 3507 
C 5581 3654 5510 3725 5331 3949 
C 4806 2573 3962 1645 2739 1101 
C 2144 838 1376 640 864 621 
L 1030 -19 
z
" transform="scale(0.015625)"/>
      <path id="HiraginoSans-W4-30d5" d="M 5222 4595 
C 5082 4550 5024 4544 4736 4544 
L 1690 4544 
C 1293 4544 1146 4550 896 4589 
L 896 3981 
C 1120 4013 1306 4019 1677 4019 
L 4838 4019 
C 4486 2643 3872 1728 2842 1043 
C 2362 723 1984 550 1408 371 
C 1613 173 1670 90 1792 -160 
C 2669 192 3226 531 3814 1069 
C 4589 1786 5082 2637 5414 3859 
C 5510 4198 5510 4198 5555 4282 
L 5222 4595 
z
" transform="scale(0.015625)"/>
      <path id="HiraginoSans-W4-30e9" d="M 1395 4314 
C 1619 4339 1786 4346 2125 4346 
L 4218 4346 
C 4570 4346 4736 4339 4947 4314 
L 4947 4890 
C 4717 4851 4582 4845 4211 4845 
L 2131 4845 
C 1728 4845 1619 4851 1395 4890 
L 1395 4314 
z
M 845 2816 
C 1062 2842 1229 2848 1651 2848 
L 4883 2848 
C 4589 2074 4314 1632 3840 1216 
C 3354 774 2803 499 1984 282 
C 2176 58 2227 -19 2323 -243 
C 3027 6 3443 211 3891 531 
C 4595 1043 5088 1722 5434 2675 
C 5523 2925 5549 2982 5613 3078 
L 5338 3398 
C 5203 3354 5114 3347 4832 3347 
L 1658 3347 
C 1261 3347 1094 3354 845 3392 
L 845 2816 
z
" transform="scale(0.015625)"/>
     </defs>
     <use xlink:href="#HiraginoSans-W4-4fe1"/>
     <use xlink:href="#HiraginoSans-W4-983c" transform="translate(99.999985 0)"/>
     <use xlink:href="#HiraginoSans-W4-30a4" transform="translate(199.999969 0)"/>
     <use xlink:href="#HiraginoSans-W4-30f3" transform="translate(299.999954 0)"/>
     <use xlink:href="#HiraginoSans-W4-30d5" transform="translate(399.999939 0)"/>
     <use xlink:href="#HiraginoSans-W4-30e9" transform="translate(499.999924 0)"/>
    </g>
    <!-- 金融・セキュリティ・監査 -->
    <g style="fill: #17365d" transform="translate(499.92 193.468362) scale(0.11 -0.11)">
     <defs>
      <path id="HiraginoSans-W4-91d1" d="M 2886 3078 
L 2886 2278 
L 1267 2278 
C 979 2278 794 2291 621 2317 
L 621 1798 
C 813 1824 1011 1837 1261 1837 
L 2886 1837 
L 2886 224 
L 1171 224 
C 870 224 640 237 422 262 
L 422 -282 
C 678 -250 915 -237 1178 -237 
L 5210 -237 
C 5472 -237 5722 -250 5933 -282 
L 5933 262 
C 5734 237 5517 224 5216 224 
L 3379 224 
L 3379 1837 
L 5114 1837 
C 5395 1837 5574 1824 5766 1798 
L 5766 2317 
C 5600 2291 5421 2278 5120 2278 
L 3379 2278 
L 3379 3078 
L 4077 3078 
C 4352 3078 4512 3072 4678 3046 
L 4678 3456 
C 5133 3162 5421 3014 5939 2797 
C 6016 2976 6099 3130 6221 3290 
C 5555 3514 5075 3757 4538 4147 
C 4032 4518 3699 4851 3437 5254 
L 2861 5254 
C 2355 4422 1421 3731 186 3270 
C 346 3085 397 3002 480 2816 
C 947 3008 1229 3162 1645 3430 
L 1645 3046 
C 1830 3072 1984 3078 2253 3078 
L 2886 3078 
z
M 2240 3501 
C 2035 3501 1933 3507 1779 3514 
C 2426 3974 2778 4307 3155 4826 
C 3539 4320 3994 3904 4576 3520 
C 4435 3507 4314 3501 4083 3501 
L 2240 3501 
z
M 1229 1485 
C 1459 1139 1626 800 1773 365 
L 2221 544 
C 2035 1011 1901 1293 1677 1677 
L 1229 1485 
z
M 4614 1664 
C 4448 1190 4256 813 4013 486 
L 4442 320 
C 4717 736 4730 762 5094 1472 
L 4614 1664 
z
" transform="scale(0.015625)"/>
      <path id="HiraginoSans-W4-878d" d="M 1216 1235 
L 1216 851 
C 1318 870 1427 877 1587 877 
L 1715 877 
L 1715 230 
C 1715 70 1709 -77 1690 -218 
L 2144 -218 
C 2125 -64 2118 58 2118 230 
L 2118 877 
L 2298 877 
C 2458 877 2566 870 2675 851 
L 2675 1242 
C 2566 1229 2464 1222 2298 1222 
L 1574 1222 
C 1421 1222 1338 1229 1229 1242 
C 1427 1376 1530 1478 1626 1645 
C 1728 1824 1760 1978 1786 2336 
L 2074 2336 
L 2074 1760 
C 2074 1504 2189 1440 2624 1440 
C 2720 1440 2797 1446 2925 1453 
L 2925 179 
C 2925 70 2886 45 2714 45 
C 2586 45 2458 58 2266 90 
C 2323 -83 2342 -173 2362 -384 
C 2515 -397 2586 -397 2669 -397 
C 3213 -397 3341 -307 3341 96 
L 3341 2176 
C 3341 2400 3347 2554 3360 2739 
C 3238 2720 3104 2714 2816 2714 
L 1075 2714 
C 870 2714 621 2726 499 2739 
C 512 2554 518 2362 518 2131 
L 518 314 
C 518 -32 512 -243 486 -442 
L 979 -442 
C 960 -275 954 -96 954 230 
L 954 1472 
C 1056 1389 1101 1344 1184 1216 
L 1216 1235 
z
M 954 2336 
L 1421 2336 
C 1402 2042 1382 1965 1325 1850 
C 1261 1715 1165 1626 954 1491 
L 954 2336 
z
M 2432 2336 
L 2925 2336 
L 2925 1779 
C 2816 1766 2771 1766 2682 1766 
C 2470 1766 2432 1786 2432 1882 
L 2432 2336 
z
M 4538 4154 
L 4237 4154 
C 3962 4154 3795 4160 3616 4186 
C 3629 4013 3635 3859 3635 3558 
L 3635 2246 
C 3635 1958 3629 1805 3616 1638 
C 3776 1651 3904 1658 4205 1658 
L 4538 1658 
L 4538 307 
C 3763 173 3738 173 3430 173 
L 3571 -365 
C 3725 -326 3731 -326 4070 -256 
C 4634 -134 5235 13 5683 141 
C 5741 -51 5773 -166 5850 -493 
L 6285 -294 
C 6074 390 5920 800 5670 1376 
L 5274 1216 
C 5408 922 5453 832 5555 538 
C 5235 448 5235 448 4979 390 
L 4979 1658 
L 5331 1658 
C 5626 1658 5760 1651 5933 1632 
C 5914 1805 5907 1971 5907 2278 
L 5907 3565 
C 5907 3840 5914 4006 5933 4186 
C 5754 4160 5581 4154 5338 4154 
L 4979 4154 
L 4979 4640 
C 4979 4902 4992 5094 5024 5293 
L 4493 5293 
C 4525 5088 4538 4896 4538 4640 
L 4538 4154 
z
M 4538 3725 
L 4538 2080 
L 4045 2080 
L 4045 3725 
L 4538 3725 
z
M 4979 2080 
L 4979 3725 
L 5491 3725 
L 5491 2080 
L 4979 2080 
z
M 3437 5114 
C 3258 5082 3091 5075 2765 5075 
L 1126 5075 
C 806 5075 627 5082 448 5114 
L 448 4627 
C 666 4653 806 4659 1101 4659 
L 2784 4659 
C 3085 4659 3226 4653 3437 4627 
L 3437 5114 
z
M 3136 3904 
C 3136 4090 3142 4224 3155 4333 
C 3034 4320 2906 4314 2656 4314 
L 1229 4314 
C 986 4314 851 4320 736 4333 
C 749 4211 755 4070 755 3904 
L 755 3488 
C 755 3315 749 3174 736 3059 
C 870 3072 998 3078 1229 3078 
L 2720 3078 
C 2918 3078 3046 3072 3155 3059 
C 3142 3168 3136 3290 3136 3494 
L 3136 3904 
z
M 2701 3450 
L 1197 3450 
L 1197 3942 
L 2701 3942 
L 2701 3450 
z
" transform="scale(0.015625)"/>
      <path id="HiraginoSans-W4-30bb" d="M 1920 3450 
L 1171 3354 
C 934 3322 717 3302 589 3302 
C 570 3302 525 3302 480 3309 
L 544 2726 
C 762 2784 762 2784 1229 2848 
L 1920 2944 
L 1920 1427 
C 1920 742 1958 550 2157 346 
C 2368 115 2746 26 3520 26 
C 3955 26 4422 64 5062 141 
C 5222 160 5267 166 5446 173 
L 5414 794 
C 4909 640 4218 550 3526 550 
C 3014 550 2758 595 2637 704 
C 2502 813 2477 941 2477 1530 
L 2477 3014 
C 4902 3341 4902 3341 5018 3373 
C 4723 2790 4275 2336 3616 1946 
C 3827 1830 3891 1779 4064 1581 
C 4768 2080 5222 2586 5536 3200 
C 5715 3552 5715 3552 5766 3629 
L 5402 3942 
C 5286 3885 5235 3872 5005 3840 
L 2483 3520 
L 2483 4397 
C 2483 4691 2490 4806 2515 5005 
L 1888 5005 
C 1914 4794 1920 4742 1920 4397 
L 1920 3450 
z
" transform="scale(0.015625)"/>
      <path id="HiraginoSans-W4-30ad" d="M 2662 3878 
L 1421 3680 
C 1126 3635 934 3616 710 3610 
L 806 3034 
C 979 3085 1190 3130 1504 3181 
L 2752 3379 
L 2970 2150 
L 1344 1888 
C 1043 1843 877 1824 659 1824 
L 755 1254 
C 947 1312 1062 1338 1414 1395 
L 3059 1651 
L 3302 326 
C 3360 19 3386 -166 3392 -365 
L 4006 -250 
C 3936 -38 3917 58 3846 435 
L 3603 1741 
L 5146 1984 
C 5261 2003 5350 2016 5427 2029 
C 5466 2035 5498 2042 5530 2048 
C 5658 2067 5690 2074 5818 2074 
L 5715 2637 
C 5536 2579 5350 2534 5030 2483 
L 3507 2240 
L 3283 3462 
L 4646 3674 
C 5088 3744 5094 3744 5286 3757 
L 5184 4314 
C 5037 4269 4826 4218 4544 4173 
L 3187 3962 
L 3072 4595 
C 3021 4883 3002 5005 2995 5184 
L 2394 5088 
C 2464 4922 2490 4813 2547 4493 
L 2662 3878 
z
" transform="scale(0.015625)"/>
      <path id="HiraginoSans-W4-30e5" d="M 4038 454 
C 4160 1088 4211 1389 4352 2381 
C 4410 2771 4410 2771 4474 2906 
L 4224 3123 
C 4115 3085 4045 3078 3872 3078 
L 2227 3078 
C 1946 3078 1786 3091 1606 3117 
L 1606 2586 
C 1786 2605 1869 2611 2214 2611 
L 3846 2611 
C 3789 2029 3642 1088 3507 454 
L 1626 454 
C 1299 454 1178 461 998 493 
L 998 -51 
C 1178 -26 1312 -19 1626 -19 
L 4736 -19 
C 5030 -19 5190 -26 5357 -51 
L 5357 493 
C 5178 461 5062 454 4736 454 
L 4038 454 
z
" transform="scale(0.015625)"/>
      <path id="HiraginoSans-W4-30ea" d="M 1446 4960 
C 1472 4794 1478 4653 1478 4352 
L 1478 2790 
C 1478 2496 1472 2330 1446 2144 
L 2080 2144 
C 2061 2310 2054 2464 2054 2790 
L 2054 4358 
C 2054 4621 2061 4819 2080 4960 
L 1446 4960 
z
M 4301 4954 
C 4320 4800 4326 4710 4326 4320 
L 4326 3635 
C 4326 2912 4320 2771 4301 2496 
C 4224 1626 3994 1210 3373 794 
C 3008 544 2669 416 2003 275 
C 2195 45 2240 -32 2323 -256 
C 2886 -90 3200 32 3514 205 
C 4147 563 4557 1043 4736 1651 
C 4851 2029 4902 2592 4902 3603 
L 4902 4326 
C 4902 4672 4909 4787 4934 4954 
L 4301 4954 
z
" transform="scale(0.015625)"/>
      <path id="HiraginoSans-W4-30c6" d="M 5050 2707 
C 5389 2707 5632 2694 5837 2675 
L 5837 3251 
C 5613 3219 5421 3206 5043 3206 
L 1357 3206 
C 986 3206 806 3219 563 3251 
L 563 2675 
C 794 2701 960 2707 1344 2707 
L 3008 2707 
C 2989 2208 2893 1734 2746 1427 
C 2477 870 1971 480 1152 218 
C 1344 32 1402 -51 1517 -282 
C 2042 -70 2355 109 2643 352 
C 3110 749 3386 1261 3507 1971 
C 3558 2253 3584 2502 3590 2707 
L 5050 2707 
z
M 1210 4262 
C 1402 4288 1613 4294 1990 4294 
L 4422 4294 
C 4762 4294 5030 4282 5210 4262 
L 5210 4838 
C 4992 4800 4838 4794 4416 4794 
L 1997 4794 
C 1581 4794 1427 4800 1210 4838 
L 1210 4262 
z
" transform="scale(0.015625)"/>
      <path id="HiraginoSans-W4-30a3" d="M 4621 4000 
C 4525 3846 4454 3763 4256 3571 
C 3712 3034 3136 2618 2438 2253 
C 1939 1990 1542 1843 934 1683 
C 1082 1491 1126 1414 1210 1216 
C 1990 1466 2522 1702 3130 2080 
L 3130 269 
C 3130 -51 3123 -166 3098 -339 
L 3693 -339 
C 3667 -179 3661 -26 3661 275 
L 3661 2400 
C 4122 2746 4570 3136 4883 3469 
C 5011 3610 5011 3610 5088 3674 
L 4621 4000 
z
" transform="scale(0.015625)"/>
      <path id="HiraginoSans-W4-76e3" d="M 2266 2989 
L 2707 2989 
C 2906 2989 3034 2982 3110 2976 
C 3104 3059 3098 3174 3098 3296 
L 3098 3840 
C 3098 3968 3104 4064 3110 4166 
C 3014 4154 2938 4154 2701 4154 
L 2266 4154 
L 2266 4659 
L 2861 4659 
C 3072 4659 3194 4653 3347 4634 
L 3347 5094 
C 3187 5069 3034 5062 2758 5062 
L 1126 5062 
C 890 5062 774 5069 608 5082 
C 621 4947 627 4819 627 4614 
L 627 2534 
C 627 2304 621 2170 608 2035 
C 781 2048 896 2054 1152 2054 
L 2842 2054 
C 3066 2054 3213 2048 3347 2029 
L 3347 2470 
C 3226 2458 3091 2451 2835 2451 
L 2266 2451 
L 2266 2989 
z
M 1850 2989 
L 1850 2451 
L 1069 2451 
L 1069 2989 
L 1850 2989 
z
M 1069 3347 
L 1069 3795 
L 2669 3795 
L 2669 3347 
L 1069 3347 
z
M 1069 4154 
L 1069 4659 
L 1850 4659 
L 1850 4154 
L 1069 4154 
z
M 5453 4000 
C 5696 4000 5856 3994 6016 3968 
L 6016 4480 
C 5856 4454 5677 4442 5446 4442 
L 4288 4442 
C 4422 4781 4467 4902 4486 4960 
C 4557 5152 4570 5184 4589 5242 
L 4077 5344 
C 4064 5216 4032 5075 3981 4915 
C 3802 4333 3558 3930 3174 3533 
C 3347 3424 3418 3366 3533 3226 
C 3770 3488 3904 3680 4083 4000 
L 5453 4000 
z
M 3699 2515 
C 3872 2541 4032 2547 4269 2547 
L 5261 2547 
C 5504 2547 5670 2541 5818 2515 
L 5818 3027 
C 5651 3002 5504 2995 5254 2995 
L 4192 2995 
C 3974 2995 3834 3002 3699 3021 
L 3699 2515 
z
M 1024 134 
L 832 134 
C 627 134 499 141 352 160 
L 352 -326 
C 493 -307 749 -294 1005 -294 
L 5421 -294 
C 5670 -294 5882 -307 6086 -326 
L 6086 160 
C 5939 141 5818 134 5581 134 
L 5370 134 
L 5370 1158 
C 5370 1376 5376 1510 5402 1664 
C 5197 1645 5024 1638 4787 1638 
L 1587 1638 
C 1338 1638 1274 1638 998 1664 
C 1018 1491 1024 1331 1024 1133 
L 1024 134 
z
M 1491 1216 
L 2317 1216 
L 2317 134 
L 1491 134 
L 1491 1216 
z
M 2758 1216 
L 3610 1216 
L 3610 134 
L 2758 134 
L 2758 1216 
z
M 4051 1216 
L 4902 1216 
L 4902 134 
L 4051 134 
L 4051 1216 
z
" transform="scale(0.015625)"/>
      <path id="HiraginoSans-W4-67fb" d="M 2925 4704 
L 1139 4704 
C 838 4704 608 4717 448 4742 
L 448 4237 
C 646 4262 845 4275 1114 4275 
L 2496 4275 
C 1946 3693 1101 3187 237 2918 
C 371 2771 442 2662 525 2490 
C 890 2630 1101 2726 1408 2899 
C 1421 2720 1427 2560 1427 2304 
L 1427 186 
L 1030 186 
C 717 186 531 198 346 224 
L 346 -288 
C 538 -262 762 -250 1056 -250 
L 5357 -250 
C 5645 -250 5882 -262 6061 -288 
L 6061 224 
C 5875 192 5702 186 5389 186 
L 4960 186 
L 4960 2240 
C 4960 2483 4966 2746 4979 2880 
C 5286 2720 5459 2650 5914 2483 
C 6022 2707 6074 2803 6202 2963 
C 5184 3219 4397 3648 3795 4275 
L 5293 4275 
C 5562 4275 5760 4262 5965 4237 
L 5965 4742 
C 5779 4717 5581 4704 5293 4704 
L 3386 4704 
L 3386 4838 
C 3386 5062 3392 5190 3424 5338 
L 2886 5338 
C 2918 5178 2925 5050 2925 4832 
L 2925 4704 
z
M 2925 3526 
C 2925 3360 2912 3219 2893 3110 
L 3418 3110 
C 3392 3232 3386 3354 3386 3520 
L 3386 3789 
C 3379 4006 3373 4134 3366 4173 
C 3770 3661 4186 3322 4864 2944 
C 4595 2931 4506 2931 4275 2931 
L 2093 2931 
C 1875 2931 1638 2938 1485 2944 
C 2125 3328 2534 3674 2938 4173 
C 2931 4045 2925 3898 2925 3789 
L 2925 3526 
z
M 1901 2509 
L 4486 2509 
L 4486 2016 
L 1901 2016 
L 1901 2509 
z
M 1901 1613 
L 4486 1613 
L 4486 1114 
L 1901 1114 
L 1901 1613 
z
M 1901 710 
L 4486 710 
L 4486 186 
L 1901 186 
L 1901 710 
z
" transform="scale(0.015625)"/>
     </defs>
     <use xlink:href="#HiraginoSans-W4-91d1"/>
     <use xlink:href="#HiraginoSans-W4-878d" transform="translate(99.999985 0)"/>
     <use xlink:href="#HiraginoSans-W4-30fb" transform="translate(199.999969 0)"/>
     <use xlink:href="#HiraginoSans-W4-30bb" transform="translate(299.999954 0)"/>
     <use xlink:href="#HiraginoSans-W4-30ad" transform="translate(399.999939 0)"/>
     <use xlink:href="#HiraginoSans-W4-30e5" transform="translate(499.999924 0)"/>
     <use xlink:href="#HiraginoSans-W4-30ea" transform="translate(599.999908 0)"/>
     <use xlink:href="#HiraginoSans-W4-30c6" transform="translate(699.999893 0)"/>
     <use xlink:href="#HiraginoSans-W4-30a3" transform="translate(799.999878 0)"/>
     <use xlink:href="#HiraginoSans-W4-30fb" transform="translate(899.999863 0)"/>
     <use xlink:href="#HiraginoSans-W4-76e3" transform="translate(999.999847 0)"/>
     <use xlink:href="#HiraginoSans-W4-67fb" transform="translate(1099.999832 0)"/>
    </g>
   </g>
   <g id="text_4">
    <!-- 現代日本株の3つの転換点が、進化する堀を生む -->
    <g style="fill: #17365d" transform="translate(193.342969 19.080469) scale(0.15 -0.15)">
     <defs>
      <path id="HiraginoSans-W7-73fe" d="M 4256 1542 
L 4256 38 
C 4256 -403 4403 -493 5126 -493 
C 5645 -493 5869 -448 6010 -307 
C 6144 -173 6189 38 6253 755 
C 5997 832 5792 922 5555 1056 
C 5555 672 5523 358 5491 307 
C 5466 269 5395 250 5248 250 
C 5094 250 5062 269 5062 346 
L 5062 1549 
L 5453 1549 
C 5702 1530 5837 1523 5862 1523 
C 5837 1760 5830 1952 5830 2227 
L 5830 4602 
C 5830 4915 5837 5075 5856 5248 
C 5683 5229 5536 5222 5242 5222 
L 3232 5222 
C 2906 5222 2771 5229 2605 5248 
C 2624 5062 2624 4947 2624 4602 
L 2624 2170 
C 2624 1926 2618 1734 2611 1523 
C 2989 1542 2989 1542 3194 1542 
C 3136 1178 3027 947 2803 704 
C 2528 403 2157 205 1594 64 
C 1837 -205 1933 -358 2054 -634 
C 2758 -403 3187 -122 3514 333 
C 3776 691 3872 947 4000 1542 
L 4256 1542 
z
M 3418 4525 
L 5030 4525 
L 5030 4186 
L 3418 4186 
L 3418 4525 
z
M 3418 3546 
L 5030 3546 
L 5030 3206 
L 3418 3206 
L 3418 3546 
z
M 3418 2566 
L 5030 2566 
L 5030 2214 
L 3418 2214 
L 3418 2566 
z
M 998 4365 
L 998 3226 
L 832 3226 
C 627 3226 518 3232 371 3251 
L 371 2483 
C 506 2502 640 2509 813 2509 
L 998 2509 
L 998 1222 
C 595 1101 378 1043 198 1018 
L 397 147 
C 474 179 557 205 634 237 
C 1446 518 1779 653 2464 1005 
L 2451 1779 
C 2144 1632 2048 1594 1805 1491 
L 1805 2509 
L 1965 2509 
C 2099 2509 2227 2502 2368 2490 
L 2368 3251 
C 2234 3232 2157 3226 1965 3226 
L 1805 3226 
L 1805 4365 
L 1933 4365 
C 2157 4365 2278 4358 2451 4339 
L 2451 5139 
C 2272 5114 2112 5107 1869 5107 
L 902 5107 
C 653 5107 493 5114 307 5139 
L 307 4339 
C 512 4358 634 4365 858 4365 
L 998 4365 
z
" transform="scale(0.015625)"/>
      <path id="HiraginoSans-W7-4ee3" d="M 5414 3014 
C 5638 3027 5734 3034 5862 3034 
C 5946 3034 5984 3034 6086 3027 
L 6074 3878 
C 5882 3840 5722 3821 5344 3795 
L 4045 3699 
C 4013 4186 4000 4448 4000 4813 
C 4000 5062 4006 5190 4026 5331 
L 3104 5318 
C 3117 5184 3136 4966 3136 4806 
C 3155 4141 3155 4141 3187 3642 
L 2720 3610 
C 2573 3597 2374 3590 2259 3590 
C 2195 3590 2144 3590 2022 3597 
L 2035 2752 
C 2253 2790 2381 2803 2682 2822 
L 3270 2867 
C 3450 1664 3789 794 4339 109 
C 4698 -326 5018 -538 5338 -538 
C 5837 -538 6086 -83 6227 1088 
C 5914 1235 5786 1325 5498 1568 
C 5446 858 5363 480 5254 480 
C 5229 480 5107 570 5043 640 
C 4870 838 4710 1088 4570 1376 
C 4358 1824 4211 2336 4128 2925 
L 5414 3014 
z
M 979 243 
C 979 -109 966 -333 941 -550 
L 1856 -550 
C 1830 -301 1818 -90 1818 230 
L 1818 3846 
C 2182 4634 2195 4672 2362 5158 
L 1504 5440 
C 1478 5216 1389 4928 1267 4614 
C 973 3898 621 3354 58 2765 
C 237 2458 301 2298 422 1856 
C 678 2112 736 2182 992 2547 
C 986 2323 979 2170 979 1830 
L 979 243 
z
M 4198 4858 
C 4518 4550 4838 4179 5114 3814 
L 5760 4339 
C 5389 4787 5171 5018 4819 5331 
L 4198 4858 
z
" transform="scale(0.015625)"/>
      <path id="HiraginoSans-W7-65e5" d="M 1606 5126 
C 1312 5126 1088 5139 883 5158 
C 902 4922 915 4698 915 4454 
L 915 326 
C 915 19 902 -250 877 -493 
L 1779 -493 
L 1779 -141 
L 4608 -141 
L 4608 -493 
L 5523 -493 
C 5498 -250 5485 -19 5485 326 
L 5485 4474 
C 5485 4691 5491 4890 5517 5158 
C 5318 5133 5126 5126 4819 5126 
L 1606 5126 
z
M 1779 2950 
L 1779 4320 
L 4608 4320 
L 4608 2950 
L 1779 2950 
z
M 4608 2157 
L 4608 666 
L 1779 666 
L 1779 2157 
L 4608 2157 
z
" transform="scale(0.015625)"/>
      <path id="HiraginoSans-W7-672c" d="M 5248 3590 
C 5555 3590 5773 3578 6048 3546 
L 6048 4429 
C 5818 4397 5574 4384 5248 4384 
L 3584 4384 
L 3584 4806 
C 3584 5069 3597 5235 3622 5402 
L 2694 5402 
C 2720 5222 2733 5069 2733 4806 
L 2733 4384 
L 1146 4384 
C 838 4384 614 4397 358 4429 
L 358 3546 
C 621 3578 851 3590 1146 3590 
L 2323 3590 
C 2106 3149 1805 2720 1446 2317 
C 1050 1875 659 1549 154 1242 
C 384 954 467 813 621 435 
C 1005 698 1274 922 1626 1286 
L 1626 640 
C 1830 659 2010 672 2266 672 
L 2733 672 
L 2733 282 
C 2733 -32 2720 -301 2688 -544 
L 3629 -544 
C 3597 -314 3584 -26 3584 282 
L 3584 672 
L 4102 672 
C 4358 672 4538 659 4742 640 
L 4742 1293 
C 5126 922 5370 723 5786 448 
C 5946 832 6035 992 6266 1286 
C 5773 1542 5389 1830 4947 2259 
C 4550 2656 4269 3034 3962 3590 
L 5248 3590 
z
M 2733 1440 
L 2221 1440 
C 2003 1440 1888 1440 1779 1453 
C 2234 1946 2509 2349 2771 2880 
C 2746 2637 2733 2445 2733 2246 
L 2733 1440 
z
M 3584 1440 
L 3584 2259 
C 3584 2400 3578 2522 3546 2886 
C 3866 2298 4141 1920 4582 1453 
C 4467 1440 4378 1440 4166 1440 
L 3584 1440 
z
" transform="scale(0.015625)"/>
      <path id="HiraginoSans-W7-682a" d="M 4538 3648 
L 5203 3648 
C 5510 3648 5709 3635 5920 3610 
L 5920 4454 
C 5722 4429 5536 4416 5210 4416 
L 4538 4416 
L 4538 4781 
C 4538 5050 4550 5229 4576 5402 
L 3699 5402 
C 3725 5222 3738 5050 3738 4774 
L 3738 4416 
L 3322 4416 
C 3347 4525 3354 4557 3379 4659 
C 3430 4864 3450 4947 3475 5024 
L 2714 5216 
C 2688 4794 2509 4179 2272 3731 
L 2272 4301 
C 2163 4282 2099 4275 1952 4275 
L 1811 4275 
L 1811 4749 
C 1811 5043 1824 5235 1850 5414 
L 973 5414 
C 998 5248 1011 5062 1011 4742 
L 1011 4275 
L 742 4275 
C 544 4275 429 4282 320 4307 
L 320 3494 
C 429 3520 550 3526 742 3526 
L 947 3526 
C 787 2842 467 2099 154 1702 
C 294 1414 384 1165 454 813 
C 698 1152 890 1555 1050 2093 
C 1030 1792 1018 1517 1018 1370 
L 1018 237 
C 1018 -90 1005 -352 979 -570 
L 1850 -570 
C 1824 -358 1811 -90 1811 237 
L 1811 1728 
C 1811 1990 1805 2291 1792 2483 
C 1901 2182 1978 2042 2138 1792 
C 2234 2163 2234 2170 2381 2534 
L 2381 2144 
C 2528 2170 2822 2189 3110 2189 
L 3494 2189 
C 3245 1792 3040 1530 2822 1325 
C 2483 998 2227 806 1869 608 
C 2074 358 2182 179 2330 -134 
C 2938 275 3366 742 3757 1414 
C 3744 1165 3738 960 3738 781 
L 3738 198 
C 3738 -96 3725 -352 3699 -570 
L 4570 -570 
C 4538 -365 4525 -102 4525 198 
L 4525 838 
C 4525 1011 4518 1229 4506 1440 
C 4838 813 5299 262 5837 -128 
C 6010 288 6086 422 6298 698 
C 5670 1050 5152 1549 4755 2189 
L 5382 2189 
C 5677 2189 5882 2176 6106 2150 
L 6106 3002 
C 5901 2976 5702 2963 5389 2963 
L 4538 2963 
L 4538 3648 
z
M 3738 3648 
L 3738 2963 
L 3110 2963 
C 2746 2963 2592 2970 2381 3008 
L 2381 2618 
C 2150 2899 1971 3194 1843 3526 
L 1965 3526 
C 2022 3526 2061 3526 2150 3520 
C 2419 3334 2528 3238 2746 2995 
C 2893 3238 2957 3379 3066 3648 
L 3738 3648 
z
" transform="scale(0.015625)"/>
      <path id="HiraginoSans-W7-306e" d="M 3776 4038 
C 4032 4006 4186 3955 4371 3834 
C 4806 3546 5056 3066 5056 2496 
C 5056 1818 4723 1222 4173 922 
C 3872 762 3475 659 2906 614 
C 3155 282 3245 109 3379 -294 
C 3834 -218 4090 -154 4397 -32 
C 5421 371 6003 1274 6003 2438 
C 6003 3936 4979 4896 3373 4896 
C 2458 4896 1670 4576 1120 3974 
C 653 3469 403 2803 403 2074 
C 403 973 966 198 1760 198 
C 2310 198 2733 576 3091 1389 
C 3424 2131 3648 2982 3776 4038 
z
M 2842 4026 
C 2765 3341 2566 2534 2330 1965 
C 2125 1446 1926 1197 1741 1197 
C 1491 1197 1286 1587 1286 2067 
C 1286 2707 1587 3328 2074 3706 
C 2323 3898 2534 3987 2842 4026 
z
" transform="scale(0.015625)"/>
      <path id="HiraginoSans-W7-33" d="M 243 1158 
C 352 787 435 602 614 390 
C 979 -38 1568 -256 2349 -256 
C 3091 -256 3667 -70 4032 288 
C 4275 525 4422 877 4422 1229 
C 4422 1600 4326 1875 4122 2112 
C 3904 2349 3661 2470 3219 2554 
C 3654 2682 3821 2771 3994 2976 
C 4179 3187 4275 3475 4275 3808 
C 4275 4134 4141 4454 3917 4678 
C 3584 5011 3053 5190 2400 5190 
C 1715 5190 1190 5005 826 4640 
C 608 4422 506 4230 378 3840 
L 1517 3661 
C 1568 3840 1600 3917 1677 4013 
C 1818 4192 2054 4294 2349 4294 
C 2880 4294 3149 4090 3149 3674 
C 3149 3430 3046 3245 2854 3123 
C 2707 3027 2464 2976 2150 2976 
C 1952 2976 1734 2989 1542 3014 
L 1542 2074 
C 1779 2099 1997 2106 2317 2106 
C 2957 2106 3283 1856 3283 1376 
C 3283 922 2925 634 2362 634 
C 2054 634 1792 723 1606 902 
C 1472 1024 1421 1126 1370 1363 
L 243 1158 
z
" transform="scale(0.015625)"/>
      <path id="HiraginoSans-W7-3064" d="M 582 2938 
C 742 3008 947 3078 1114 3130 
C 2138 3437 2970 3584 3635 3584 
C 4077 3584 4390 3482 4608 3258 
C 4774 3085 4858 2867 4858 2598 
C 4858 2336 4787 2118 4640 1907 
C 4416 1587 4051 1338 3584 1184 
C 3136 1030 2566 954 1715 928 
C 1946 525 2010 358 2112 -58 
C 3251 58 3827 192 4435 486 
C 5363 947 5888 1709 5888 2618 
C 5888 3251 5619 3782 5133 4115 
C 4762 4371 4250 4499 3616 4499 
C 2976 4499 2502 4429 1165 4147 
C 742 4058 614 4032 371 4013 
L 582 2938 
z
" transform="scale(0.015625)"/>
      <path id="HiraginoSans-W7-8ee2" d="M 2157 358 
L 2554 358 
C 2720 358 2835 352 2950 346 
L 3078 -422 
C 3226 -384 3315 -365 3782 -288 
C 4582 -160 4685 -141 5357 26 
C 5421 -218 5427 -250 5498 -531 
L 6246 -166 
C 5990 730 5805 1248 5408 2144 
L 4717 1862 
C 4909 1402 4992 1184 5158 691 
C 4730 614 4640 602 4218 550 
C 4371 1075 4480 1555 4570 2016 
C 4666 2502 4666 2502 4685 2598 
L 5523 2598 
C 5792 2598 5990 2586 6176 2566 
L 6176 3392 
C 5990 3366 5818 3360 5523 3360 
L 3885 3360 
C 3584 3360 3411 3366 3226 3392 
L 3226 2566 
C 3418 2592 3546 2598 3853 2598 
C 3725 1709 3648 1363 3405 474 
L 3149 454 
L 3149 1094 
C 2963 1069 2867 1062 2630 1062 
L 2157 1062 
L 2157 1370 
L 2528 1370 
C 2848 1370 2938 1370 3078 1357 
C 3066 1504 3059 1658 3059 2074 
L 3059 3264 
C 3059 3629 3066 3770 3078 3898 
C 2957 3885 2854 3878 2554 3878 
L 2157 3878 
L 2157 4173 
L 2592 4173 
C 2925 4173 2995 4173 3187 4147 
L 3187 4902 
C 3008 4877 2874 4870 2547 4870 
L 2157 4870 
L 2157 4922 
C 2157 5114 2170 5267 2195 5421 
L 1376 5421 
C 1402 5248 1414 5107 1414 4922 
L 1414 4870 
L 966 4870 
C 634 4870 493 4877 314 4902 
L 314 4147 
C 518 4166 634 4173 922 4173 
L 1414 4173 
L 1414 3878 
L 1126 3878 
C 768 3878 678 3878 474 3898 
C 493 3674 499 3526 499 3206 
L 499 2112 
C 499 1792 493 1581 474 1350 
C 704 1363 838 1370 1133 1370 
L 1414 1370 
L 1414 1062 
L 870 1062 
C 563 1062 448 1069 269 1094 
L 269 320 
C 474 352 634 358 915 358 
L 1414 358 
L 1414 45 
C 1414 -179 1402 -352 1376 -550 
L 2195 -550 
C 2170 -352 2157 -192 2157 6 
L 2157 358 
z
M 2106 2010 
L 2106 2330 
L 2432 2330 
L 2432 2010 
L 2106 2010 
z
M 2106 2912 
L 2106 3238 
L 2432 3238 
L 2432 2912 
L 2106 2912 
z
M 1466 3238 
L 1466 2912 
L 1126 2912 
L 1126 3238 
L 1466 3238 
z
M 1466 2330 
L 1466 2010 
L 1126 2010 
L 1126 2330 
L 1466 2330 
z
M 3430 4230 
C 3610 4256 3770 4262 4070 4262 
L 5318 4262 
C 5530 4262 5715 4256 5805 4250 
C 5888 4237 5888 4237 5958 4237 
L 5958 5050 
C 5779 5024 5638 5018 5318 5018 
L 4070 5018 
C 3750 5018 3610 5024 3430 5050 
L 3430 4230 
z
" transform="scale(0.015625)"/>
      <path id="HiraginoSans-W7-63db" d="M 5581 896 
C 5869 896 6035 890 6208 864 
L 6208 1626 
C 6118 1613 6054 1606 5901 1600 
L 5901 3392 
C 5901 3674 5907 3859 5920 4019 
C 5766 4006 5651 4000 5357 4000 
L 4870 4000 
C 5011 4179 5146 4365 5235 4506 
C 5312 4621 5350 4672 5408 4742 
L 5005 5139 
C 4877 5120 4768 5114 4550 5114 
L 3789 5114 
C 3814 5171 3814 5171 3872 5293 
C 3878 5312 3891 5344 3917 5389 
L 3085 5466 
C 2963 4998 2630 4525 2125 4077 
L 2125 4282 
C 2022 4269 1933 4262 1818 4262 
L 1696 4262 
L 1696 4749 
C 1696 5075 1702 5222 1728 5402 
L 864 5402 
C 896 5222 902 5069 902 4742 
L 902 4262 
L 704 4262 
C 544 4262 416 4269 262 4294 
L 262 3488 
C 429 3507 557 3514 698 3514 
L 902 3514 
L 902 2413 
C 518 2317 378 2285 205 2272 
L 294 1446 
C 461 1510 467 1510 627 1555 
C 742 1587 755 1594 902 1638 
L 902 416 
C 902 262 870 230 736 230 
C 563 230 435 237 218 262 
C 326 -26 365 -186 390 -506 
C 570 -518 659 -525 755 -525 
C 1517 -525 1696 -390 1696 179 
L 1696 1907 
C 1824 1952 1894 1978 2080 2054 
L 2080 2803 
C 1888 2733 1818 2707 1696 2662 
L 1696 3514 
L 1837 3514 
C 1933 3514 2035 3507 2112 3494 
C 2189 3405 2208 3379 2266 3296 
L 2266 1600 
C 2099 1606 2042 1606 1946 1619 
L 1946 870 
C 2144 890 2272 896 2547 896 
L 3392 896 
C 3104 480 2605 262 1734 160 
C 1907 -128 1984 -294 2074 -589 
C 3027 -384 3642 -38 4026 512 
C 4243 224 4461 32 4794 -154 
C 5158 -365 5472 -480 5978 -582 
C 6048 -294 6125 -96 6272 192 
C 5370 307 4941 486 4550 896 
L 5581 896 
z
M 2982 1600 
L 2982 2125 
C 3136 2016 3226 1933 3379 1766 
C 3827 2195 3936 2477 3962 3328 
L 4198 3328 
L 4198 2496 
C 4198 2182 4378 2067 4845 2067 
C 4902 2067 4973 2067 5178 2080 
L 5178 1600 
L 4397 1600 
C 4416 1760 4422 1818 4435 2022 
L 3661 2035 
C 3661 1824 3661 1779 3635 1600 
L 2982 1600 
z
M 3085 4000 
C 3206 4154 3283 4256 3398 4429 
L 4314 4429 
C 4211 4269 4109 4128 4000 4000 
L 3085 4000 
z
M 3373 3328 
C 3354 2707 3290 2541 2982 2253 
L 2982 3328 
L 3373 3328 
z
M 5178 2682 
L 5101 2682 
C 5043 2675 5011 2675 4992 2675 
C 4813 2675 4781 2701 4781 2829 
L 4781 3328 
L 5178 3328 
L 5178 2682 
z
" transform="scale(0.015625)"/>
      <path id="HiraginoSans-W7-70b9" d="M 3520 4064 
L 5197 4064 
C 5478 4064 5683 4051 5907 4026 
L 5907 4845 
C 5709 4819 5504 4806 5197 4806 
L 3520 4806 
L 3520 4858 
C 3520 5107 3533 5248 3558 5402 
L 2618 5402 
C 2643 5222 2656 5030 2656 4781 
L 2656 3533 
L 1670 3533 
C 1344 3533 1133 3539 941 3558 
C 960 3373 966 3238 966 3008 
L 966 1722 
C 966 1523 960 1389 947 1229 
C 1120 1242 1293 1248 1530 1248 
L 4845 1248 
C 5082 1248 5254 1242 5440 1229 
C 5427 1363 5421 1510 5421 1734 
L 5421 3008 
C 5421 3238 5427 3398 5446 3558 
C 5280 3539 5069 3533 4717 3533 
L 3520 3533 
L 3520 4064 
z
M 4595 2790 
L 4595 1997 
L 1798 1997 
L 1798 2790 
L 4595 2790 
z
M 947 -563 
C 1318 -32 1434 211 1658 941 
L 909 1190 
C 742 627 563 288 192 -154 
L 947 -563 
z
M 2912 -461 
C 2893 122 2880 275 2758 998 
L 2016 922 
C 2067 493 2093 160 2093 -218 
C 2093 -352 2093 -378 2086 -557 
L 2912 -461 
z
M 4474 -333 
C 4326 198 4224 525 4000 1075 
L 3290 915 
C 3469 403 3571 -6 3674 -570 
L 4474 -333 
z
M 6112 -186 
C 5779 499 5670 691 5344 1203 
L 4627 928 
C 4947 390 5062 147 5306 -544 
L 6112 -186 
z
" transform="scale(0.015625)"/>
      <path id="HiraginoSans-W7-304c" d="M 4038 4768 
C 4250 4544 4461 4230 4634 3904 
L 5190 4186 
C 5005 4538 4858 4749 4602 5030 
L 4038 4768 
z
M 4826 5107 
C 5050 4851 5222 4602 5408 4269 
L 5958 4557 
C 5792 4864 5600 5126 5370 5370 
L 4826 5107 
z
M 4442 3616 
C 4614 3373 4704 3206 4890 2797 
C 5126 2278 5254 1882 5363 1350 
L 6246 1779 
C 6016 2643 5728 3277 5229 3987 
L 4442 3616 
z
M 410 2829 
C 595 2880 1030 2957 1485 3021 
C 1216 1952 672 666 237 96 
L 1126 -384 
C 1165 -301 1171 -288 1229 -166 
C 1824 1075 2176 2048 2400 3091 
C 2541 3104 2611 3110 2720 3110 
C 2950 3110 3053 3085 3136 3002 
C 3251 2899 3296 2733 3296 2426 
C 3296 1939 3219 1274 3123 966 
C 3046 710 2950 608 2790 608 
C 2579 608 2208 710 1882 851 
C 1946 550 1965 390 1965 166 
C 1965 70 1965 19 1952 -122 
C 2387 -250 2656 -301 2931 -301 
C 3283 -301 3488 -224 3680 -13 
C 4006 339 4198 1229 4198 2374 
C 4198 2976 4115 3290 3898 3552 
C 3686 3802 3354 3923 2899 3923 
C 2803 3923 2714 3917 2560 3910 
C 2579 3987 2579 3994 2605 4128 
C 2694 4653 2746 4928 2752 4954 
C 2765 5024 2778 5075 2797 5139 
L 1805 5235 
C 1811 5190 1811 5158 1811 5139 
C 1811 4896 1766 4518 1651 3846 
C 1325 3795 557 3725 365 3725 
C 352 3725 339 3725 326 3725 
L 410 2829 
z
" transform="scale(0.015625)"/>
      <path id="HiraginoSans-W7-3001" d="M 192 954 
C 787 474 1165 90 1638 -538 
L 2400 186 
C 1882 806 1498 1171 890 1626 
L 192 954 
z
" transform="scale(0.015625)"/>
      <path id="HiraginoSans-W7-9032" d="M 4742 1862 
L 5197 1862 
C 5562 1862 5683 1856 5850 1843 
L 5850 2522 
C 5677 2502 5581 2502 5197 2502 
L 4742 2502 
L 4742 2886 
L 5197 2886 
C 5568 2886 5670 2880 5850 2867 
L 5850 3546 
C 5683 3533 5581 3526 5197 3526 
L 4742 3526 
L 4742 3917 
L 5523 3917 
C 5766 3917 5901 3910 6042 3891 
L 6042 4646 
C 5862 4621 5683 4614 5402 4614 
L 4845 4614 
C 4902 4710 5101 5050 5165 5158 
C 5210 5248 5210 5248 5242 5299 
L 4397 5427 
C 4294 5146 4186 4928 3987 4614 
L 3296 4614 
C 3430 4806 3482 4896 3693 5267 
L 2829 5446 
C 2752 5158 2579 4819 2317 4435 
C 2080 4096 1894 3891 1542 3578 
C 1754 3354 1856 3194 1997 2880 
C 2157 3040 2176 3066 2310 3258 
C 2304 3117 2298 2963 2298 2861 
L 2298 1357 
C 2298 1018 2291 896 2278 710 
C 2477 730 2566 730 2886 730 
L 5440 730 
C 5728 730 5901 723 6080 704 
L 6080 1466 
C 5926 1446 5754 1440 5427 1440 
L 4742 1440 
L 4742 1862 
z
M 3955 1862 
L 3955 1440 
L 3091 1440 
L 3091 1862 
L 3955 1862 
z
M 3955 2502 
L 3091 2502 
L 3091 2886 
L 3955 2886 
L 3955 2502 
z
M 3955 3526 
L 3091 3526 
L 3091 3917 
L 3955 3917 
L 3955 3526 
z
M 275 4755 
C 755 4346 1018 4070 1370 3597 
L 2003 4224 
C 1651 4646 1331 4966 883 5338 
L 275 4755 
z
M 262 2195 
C 429 2221 512 2227 678 2227 
L 992 2227 
L 992 928 
C 653 646 358 454 128 365 
L 493 -506 
C 531 -474 557 -454 595 -429 
C 979 -147 1146 -13 1421 230 
C 1645 -38 1869 -205 2144 -301 
C 2426 -403 2957 -448 3827 -448 
C 4614 -448 5549 -435 6099 -410 
C 6150 -38 6189 122 6310 480 
C 5632 384 4800 339 3642 339 
C 3078 339 2637 378 2413 442 
C 2118 525 1978 640 1798 928 
L 1798 2304 
C 1798 2662 1805 2816 1824 3014 
C 1664 2995 1536 2989 1338 2989 
L 787 2989 
C 538 2989 435 2995 262 3021 
L 262 2195 
z
" transform="scale(0.015625)"/>
      <path id="HiraginoSans-W7-5316" d="M 3795 2342 
C 4678 2810 5261 3200 5933 3795 
C 5984 3840 6003 3853 6048 3885 
L 5408 4557 
C 5082 4134 4486 3667 3795 3290 
L 3795 4544 
C 3795 4902 3808 5158 3834 5350 
L 2893 5350 
C 2918 5158 2931 4883 2931 4544 
L 2931 339 
C 2931 -288 3130 -410 4166 -410 
C 5197 -410 5562 -346 5773 -115 
C 5971 102 6054 480 6099 1408 
C 5830 1466 5594 1549 5286 1690 
C 5267 941 5222 653 5120 512 
C 5050 416 4826 378 4346 378 
C 3910 378 3795 416 3795 570 
L 3795 2342 
z
M 1082 301 
C 1082 -6 1069 -262 1043 -544 
L 1965 -544 
C 1939 -275 1926 26 1926 294 
L 1926 3776 
C 2150 4262 2214 4422 2368 4845 
C 2419 4979 2432 5018 2502 5203 
L 1626 5453 
C 1562 5024 1318 4422 986 3885 
C 723 3450 525 3200 141 2829 
C 326 2451 384 2291 506 1888 
C 723 2112 966 2413 1094 2605 
C 1082 2144 1082 2074 1082 1914 
L 1082 301 
z
" transform="scale(0.015625)"/>
      <path id="HiraginoSans-W7-3059" d="M 416 3590 
C 966 3667 1798 3712 3322 3757 
C 3322 3398 3322 3398 3322 3366 
C 3328 3290 3328 3290 3328 3264 
C 3181 3354 2976 3405 2726 3405 
C 1933 3405 1370 2906 1370 2208 
C 1370 1843 1510 1555 1798 1331 
C 2022 1165 2278 1075 2566 1075 
C 2970 1075 3245 1184 3469 1434 
C 3424 1229 3322 1075 3123 909 
C 2803 634 2355 461 1677 346 
C 1939 58 2022 -83 2208 -518 
C 2778 -346 3104 -205 3424 6 
C 4096 442 4435 1037 4435 1773 
C 4435 2138 4365 2419 4198 2739 
C 4198 2816 4198 2861 4198 2886 
L 4205 3411 
L 4205 3622 
L 4198 3770 
C 4525 3776 4576 3776 4915 3776 
C 5600 3776 5754 3770 6029 3750 
L 6022 4634 
C 5766 4608 5274 4595 4192 4589 
C 4198 5011 4198 5024 4230 5299 
L 3264 5299 
C 3296 5082 3296 5050 3309 4570 
C 1504 4518 864 4499 723 4499 
C 608 4499 544 4499 390 4512 
L 416 3590 
z
M 2822 2707 
C 3123 2707 3322 2547 3322 2317 
C 3322 2048 3078 1837 2765 1837 
C 2483 1837 2278 2016 2278 2259 
C 2278 2515 2509 2707 2822 2707 
z
" transform="scale(0.015625)"/>
      <path id="HiraginoSans-W7-308b" d="M 1286 4090 
C 1478 4115 1536 4115 1741 4128 
C 2682 4173 2790 4179 3315 4224 
C 2413 3322 1075 2259 474 1971 
L 986 1146 
C 1779 1856 2656 2221 3597 2221 
C 4333 2221 4806 1920 4806 1453 
C 4806 1050 4621 806 4166 621 
C 4070 883 4000 1018 3872 1171 
C 3603 1504 3200 1690 2746 1690 
C 2067 1690 1568 1274 1568 723 
C 1568 410 1709 128 1958 -58 
C 2227 -262 2701 -378 3258 -378 
C 3872 -378 4435 -243 4864 6 
C 5440 339 5741 838 5741 1459 
C 5741 1907 5587 2259 5274 2522 
C 4928 2810 4480 2957 3936 2957 
C 3565 2957 3245 2912 2880 2803 
C 3398 3168 3603 3334 4269 3930 
C 4768 4371 4774 4371 4909 4448 
L 4454 5114 
C 4346 5062 4269 5050 4019 5030 
C 3424 4986 2630 4954 2080 4954 
C 1696 4954 1485 4966 1248 4998 
L 1286 4090 
z
M 3347 390 
C 3200 358 3174 358 3078 358 
C 2662 358 2419 486 2419 710 
C 2419 864 2547 966 2739 966 
C 3040 966 3251 768 3347 390 
z
" transform="scale(0.015625)"/>
      <path id="HiraginoSans-W7-5800" d="M 4851 3418 
L 5536 3418 
C 5741 3418 5901 3411 6042 3398 
C 6029 3520 6022 3686 6022 3910 
L 6022 4736 
C 6022 4973 6029 5107 6042 5261 
C 5837 5235 5651 5229 5344 5229 
L 2874 5229 
C 2560 5229 2381 5235 2170 5261 
C 2195 5037 2202 4851 2202 4326 
C 2202 3078 2138 2093 2029 1555 
C 1894 909 1670 474 1216 0 
C 1523 -166 1683 -288 1920 -544 
C 2656 378 2925 1414 2957 3418 
L 4096 3418 
L 4096 2355 
L 3757 2355 
L 3757 2816 
C 3757 3002 3763 3098 3776 3181 
L 3085 3181 
C 3098 3072 3104 2957 3104 2771 
L 3104 2016 
C 3104 1824 3104 1747 3091 1638 
C 3213 1651 3328 1658 3482 1658 
L 4096 1658 
L 4096 448 
L 3603 448 
L 3603 1056 
C 3603 1261 3610 1363 3622 1453 
L 2854 1453 
C 2867 1325 2874 1222 2874 998 
L 2874 -13 
C 2874 -237 2867 -384 2848 -550 
L 3610 -550 
L 3610 -275 
L 5350 -275 
L 5350 -544 
L 6093 -544 
C 6074 -371 6061 -166 6061 45 
L 6061 998 
C 6061 1222 6067 1331 6086 1453 
L 5306 1453 
C 5325 1357 5331 1254 5331 1056 
L 5331 448 
L 4851 448 
L 4851 1658 
L 5517 1658 
C 5690 1658 5811 1651 5946 1638 
C 5933 1734 5926 1888 5926 2093 
L 5926 2771 
C 5926 2963 5933 3072 5952 3181 
L 5216 3181 
C 5229 3078 5235 2995 5235 2816 
L 5235 2355 
L 4851 2355 
L 4851 3418 
z
M 2963 4102 
C 2963 4173 2963 4218 2963 4320 
L 2963 4518 
L 5235 4518 
L 5235 4102 
L 2963 4102 
z
M 794 3846 
L 666 3846 
C 486 3846 365 3853 218 3878 
L 218 3072 
C 365 3098 480 3104 666 3104 
L 794 3104 
L 794 1440 
C 461 1312 314 1274 166 1248 
L 314 358 
C 384 403 416 416 595 499 
C 1248 787 1510 915 1920 1158 
L 1920 1946 
C 1754 1856 1696 1830 1594 1779 
L 1594 3104 
C 1792 3104 1882 3098 2010 3078 
L 2010 3872 
C 1901 3853 1805 3846 1594 3846 
L 1594 4614 
C 1594 4960 1600 5139 1632 5338 
L 755 5338 
C 787 5133 794 4954 794 4621 
L 794 3846 
z
" transform="scale(0.015625)"/>
      <path id="HiraginoSans-W7-3092" d="M 646 3808 
C 685 3814 717 3814 742 3814 
C 742 3814 781 3814 832 3814 
C 845 3808 883 3808 941 3808 
C 960 3808 1062 3808 1184 3802 
C 1370 3795 1421 3795 1779 3795 
C 1747 3750 1741 3744 1683 3635 
C 1350 3066 794 2400 435 2138 
L 1126 1453 
C 1286 1664 1446 1837 1709 2067 
C 2189 2483 2624 2701 2970 2701 
C 3155 2701 3264 2618 3296 2445 
C 2854 2253 2573 2106 2362 1952 
C 1875 1600 1619 1203 1619 806 
C 1619 544 1709 294 1869 115 
C 2163 -218 2694 -358 3635 -358 
C 4173 -358 4742 -320 5280 -243 
C 5453 -218 5478 -218 5600 -211 
L 5530 768 
C 5030 582 4339 480 3565 480 
C 2867 480 2592 595 2592 890 
C 2592 1050 2694 1210 2893 1350 
C 3014 1434 3142 1504 3405 1626 
C 3411 1600 3411 1581 3411 1574 
C 3411 1235 3398 954 3373 832 
L 4262 858 
C 4250 986 4243 1094 4243 1286 
C 4243 1325 4243 1370 4243 1421 
C 4243 1517 4243 1581 4243 1606 
L 4243 1722 
L 4237 1933 
C 5011 2195 5011 2195 5165 2234 
C 5491 2330 5702 2374 5888 2400 
L 5549 3270 
C 5440 3206 5414 3200 5050 3078 
C 4762 2982 4730 2970 4480 2880 
C 4314 2822 4198 2784 4141 2765 
C 4026 3194 3706 3411 3187 3411 
C 2867 3411 2637 3347 2304 3162 
C 2509 3437 2598 3571 2720 3795 
C 3366 3814 4198 3866 4666 3923 
C 4973 3955 4973 3955 5171 3974 
L 5133 4838 
C 4768 4742 4243 4672 3482 4627 
C 3200 4614 3181 4614 3085 4602 
C 3110 4653 3110 4659 3136 4717 
C 3328 5178 3328 5178 3373 5248 
L 2381 5338 
C 2355 5126 2310 4973 2150 4589 
C 2125 4589 2093 4589 2086 4589 
C 2061 4589 2029 4589 1958 4589 
C 1914 4589 1869 4589 1830 4589 
C 1306 4589 896 4614 659 4672 
L 646 3808 
z
" transform="scale(0.015625)"/>
      <path id="HiraginoSans-W7-751f" d="M 2842 3424 
L 2842 2355 
L 1926 2355 
C 1562 2355 1344 2362 1120 2387 
L 1120 1555 
C 1363 1581 1619 1594 1939 1594 
L 2842 1594 
L 2842 403 
L 1312 403 
C 966 403 653 416 365 448 
L 365 -416 
C 685 -384 992 -371 1338 -371 
L 5165 -371 
C 5510 -371 5779 -384 6099 -416 
L 6099 448 
C 5818 416 5523 403 5146 403 
L 3706 403 
L 3706 1594 
L 4742 1594 
C 5056 1594 5318 1581 5581 1555 
L 5581 2394 
C 5338 2368 5062 2355 4736 2355 
L 3706 2355 
L 3706 3424 
L 4966 3424 
C 5293 3424 5555 3411 5869 3386 
L 5869 4224 
C 5594 4198 5280 4186 4941 4186 
L 3706 4186 
L 3706 4576 
C 3706 4954 3712 5171 3744 5382 
L 2797 5382 
C 2829 5152 2842 4941 2842 4570 
L 2842 4186 
L 1933 4186 
C 1984 4339 2035 4493 2067 4602 
C 2118 4762 2118 4768 2138 4819 
C 2182 4941 2182 4941 2195 4986 
L 1338 5197 
C 1318 5011 1280 4838 1210 4602 
C 998 3885 634 3238 166 2771 
C 435 2541 538 2419 742 2093 
C 1094 2496 1363 2899 1613 3424 
L 2842 3424 
z
" transform="scale(0.015625)"/>
      <path id="HiraginoSans-W7-3080" d="M 518 3654 
C 570 3654 608 3654 634 3654 
C 672 3654 723 3654 787 3648 
C 1050 3635 1133 3635 1318 3635 
C 1376 3635 1440 3635 1645 3635 
L 1632 3238 
C 966 3219 467 2720 467 2074 
C 467 1504 826 1050 1280 1050 
C 1331 1050 1370 1056 1440 1075 
C 1338 909 1293 755 1293 576 
C 1293 294 1376 109 1574 -45 
C 1862 -262 2336 -365 3078 -365 
C 3354 -365 3712 -346 4006 -314 
C 4506 -262 4774 -192 5043 -58 
C 5408 134 5587 474 5587 979 
C 5587 1210 5562 1421 5517 1594 
C 5472 1754 5472 1754 5459 1830 
C 5427 1978 5427 1978 5402 2061 
C 4979 2112 4806 2157 4390 2323 
C 4442 2195 4442 2195 4538 1862 
C 4627 1542 4653 1376 4653 1126 
C 4653 826 4525 666 4218 589 
C 3955 525 3558 480 3213 480 
C 2515 480 2240 570 2240 800 
C 2240 941 2304 1101 2458 1331 
C 2637 1613 2637 1613 2675 1690 
C 2784 1888 2829 2080 2829 2310 
C 2829 2650 2733 2861 2490 3066 
C 2483 3104 2483 3130 2483 3155 
C 2483 3181 2490 3526 2496 3654 
C 2790 3674 2982 3699 3430 3770 
C 3520 3789 3546 3789 3616 3795 
L 3584 4640 
C 3360 4563 3059 4512 2515 4454 
C 2522 4525 2522 4544 2522 4595 
C 2522 4742 2522 4742 2528 4806 
C 2547 5050 2554 5101 2586 5235 
L 1626 5242 
C 1651 5094 1658 4947 1658 4698 
C 1658 4678 1658 4627 1658 4538 
C 1658 4512 1658 4467 1658 4416 
C 1542 4416 1453 4416 1395 4416 
C 1005 4416 742 4435 531 4486 
L 518 3654 
z
M 1683 2560 
C 1875 2547 1965 2445 1965 2234 
C 1965 1965 1798 1760 1574 1760 
C 1389 1760 1274 1894 1274 2106 
C 1274 2362 1440 2560 1658 2560 
C 1664 2560 1670 2560 1683 2560 
z
M 3968 4288 
C 4467 3923 5056 3277 5395 2720 
L 6138 3309 
C 5722 3885 5325 4288 4666 4813 
L 3968 4288 
z
" transform="scale(0.015625)"/>
     </defs>
     <use xlink:href="#HiraginoSans-W7-73fe"/>
     <use xlink:href="#HiraginoSans-W7-4ee3" transform="translate(99.999985 0)"/>
     <use xlink:href="#HiraginoSans-W7-65e5" transform="translate(199.999969 0)"/>
     <use xlink:href="#HiraginoSans-W7-672c" transform="translate(299.999954 0)"/>
     <use xlink:href="#HiraginoSans-W7-682a" transform="translate(399.999939 0)"/>
     <use xlink:href="#HiraginoSans-W7-306e" transform="translate(499.999924 0)"/>
     <use xlink:href="#HiraginoSans-W7-33" transform="translate(599.999908 0)"/>
     <use xlink:href="#HiraginoSans-W7-3064" transform="translate(674.099899 0)"/>
     <use xlink:href="#HiraginoSans-W7-306e" transform="translate(774.099884 0)"/>
     <use xlink:href="#HiraginoSans-W7-8ee2" transform="translate(874.099869 0)"/>
     <use xlink:href="#HiraginoSans-W7-63db" transform="translate(974.099854 0)"/>
     <use xlink:href="#HiraginoSans-W7-70b9" transform="translate(1074.099838 0)"/>
     <use xlink:href="#HiraginoSans-W7-304c" transform="translate(1174.099823 0)"/>
     <use xlink:href="#HiraginoSans-W7-3001" transform="translate(1274.099808 0)"/>
     <use xlink:href="#HiraginoSans-W7-9032" transform="translate(1374.099792 0)"/>
     <use xlink:href="#HiraginoSans-W7-5316" transform="translate(1474.099777 0)"/>
     <use xlink:href="#HiraginoSans-W7-3059" transform="translate(1574.099762 0)"/>
     <use xlink:href="#HiraginoSans-W7-308b" transform="translate(1674.099747 0)"/>
     <use xlink:href="#HiraginoSans-W7-5800" transform="translate(1774.099731 0)"/>
     <use xlink:href="#HiraginoSans-W7-3092" transform="translate(1874.099716 0)"/>
     <use xlink:href="#HiraginoSans-W7-751f" transform="translate(1974.099701 0)"/>
     <use xlink:href="#HiraginoSans-W7-3080" transform="translate(2074.099686 0)"/>
    </g>
   </g>
  </g>
 </g>
 <defs>
  <clipPath id="p9d2725cda4">
   <rect x="7.2" y="25.080469" width="698.4" height="305.88375"/>
  </clipPath>
 </defs>
</svg>
